G04 #@! TF.GenerationSoftware,KiCad,Pcbnew,9.0.0*
G04 #@! TF.CreationDate,2025-03-22T14:34:33-05:00*
G04 #@! TF.ProjectId,TMB3956,544d4233-3935-4362-9e6b-696361645f70,v1.0.1*
G04 #@! TF.SameCoordinates,Original*
G04 #@! TF.FileFunction,Copper,L1,Top*
G04 #@! TF.FilePolarity,Positive*
%FSLAX46Y46*%
G04 Gerber Fmt 4.6, Leading zero omitted, Abs format (unit mm)*
G04 Created by KiCad (PCBNEW 9.0.0) date 2025-03-22 14:34:33*
%MOMM*%
%LPD*%
G01*
G04 APERTURE LIST*
G04 #@! TA.AperFunction,ComponentPad*
%ADD10R,1.700000X1.700000*%
G04 #@! TD*
G04 #@! TA.AperFunction,ComponentPad*
%ADD11O,1.700000X1.700000*%
G04 #@! TD*
G04 #@! TA.AperFunction,ComponentPad*
%ADD12C,1.778000*%
G04 #@! TD*
G04 #@! TA.AperFunction,ComponentPad*
%ADD13C,2.286000*%
G04 #@! TD*
G04 #@! TA.AperFunction,ComponentPad*
%ADD14C,2.000000*%
G04 #@! TD*
G04 #@! TA.AperFunction,WasherPad*
%ADD15C,2.700000*%
G04 #@! TD*
G04 #@! TA.AperFunction,ComponentPad*
%ADD16R,1.750000X1.750000*%
G04 #@! TD*
G04 #@! TA.AperFunction,ComponentPad*
%ADD17C,1.750000*%
G04 #@! TD*
G04 #@! TA.AperFunction,ComponentPad*
%ADD18R,1.800000X1.800000*%
G04 #@! TD*
G04 #@! TA.AperFunction,ComponentPad*
%ADD19C,1.800000*%
G04 #@! TD*
G04 #@! TA.AperFunction,ComponentPad*
%ADD20C,4.318000*%
G04 #@! TD*
G04 #@! TA.AperFunction,ComponentPad*
%ADD21R,1.778000X1.778000*%
G04 #@! TD*
G04 #@! TA.AperFunction,ComponentPad*
%ADD22C,1.400000*%
G04 #@! TD*
G04 #@! TA.AperFunction,ComponentPad*
%ADD23O,1.400000X1.400000*%
G04 #@! TD*
G04 #@! TA.AperFunction,ComponentPad*
%ADD24C,1.700000*%
G04 #@! TD*
G04 #@! TA.AperFunction,ComponentPad*
%ADD25R,1.520000X1.520000*%
G04 #@! TD*
G04 #@! TA.AperFunction,ComponentPad*
%ADD26C,1.520000*%
G04 #@! TD*
G04 #@! TA.AperFunction,ViaPad*
%ADD27C,0.800000*%
G04 #@! TD*
G04 #@! TA.AperFunction,Conductor*
%ADD28C,0.300000*%
G04 #@! TD*
G04 #@! TA.AperFunction,Conductor*
%ADD29C,0.500000*%
G04 #@! TD*
G04 #@! TA.AperFunction,Conductor*
%ADD30C,0.250000*%
G04 #@! TD*
G04 APERTURE END LIST*
D10*
X161250000Y-52330000D03*
D11*
X161250000Y-49790000D03*
X161250000Y-47250000D03*
D10*
X141000000Y-43225000D03*
D11*
X141000000Y-45765000D03*
X141000000Y-48305000D03*
D12*
X61470000Y-65207500D03*
X61470000Y-62667500D03*
X61470000Y-60127500D03*
X69090000Y-72827500D03*
X71630000Y-72827500D03*
X74170000Y-72827500D03*
D13*
X64010000Y-56000000D03*
X64010000Y-69335000D03*
X79250000Y-69335000D03*
X79250000Y-56000000D03*
D12*
X68455000Y-55047500D03*
X74805000Y-55047500D03*
X68455000Y-49967500D03*
X74805000Y-49967500D03*
D14*
X58000000Y-97250000D03*
X64500000Y-97250000D03*
X58000000Y-101750000D03*
X64500000Y-101750000D03*
X68500000Y-90000000D03*
X75000000Y-90000000D03*
X68500000Y-94500000D03*
X75000000Y-94500000D03*
D15*
X74500000Y-123900000D03*
X75700000Y-115500000D03*
X98500000Y-115500000D03*
X99700000Y-123900000D03*
D16*
X70600000Y-117950000D03*
D17*
X70600000Y-121450000D03*
X103600000Y-117950000D03*
D14*
X132000000Y-71500000D03*
X138500000Y-71500000D03*
X132000000Y-76000000D03*
X138500000Y-76000000D03*
X153500000Y-71500000D03*
X160000000Y-71500000D03*
X153500000Y-76000000D03*
X160000000Y-76000000D03*
D18*
X139710000Y-115000000D03*
D19*
X142250000Y-115000000D03*
D20*
X161290000Y-41910000D03*
X161290000Y-123190000D03*
X54610000Y-41910000D03*
X54610000Y-123190000D03*
D18*
X130935000Y-115000000D03*
D19*
X133475000Y-115000000D03*
D14*
X142750000Y-64500000D03*
X149250000Y-64500000D03*
X142750000Y-69000000D03*
X149250000Y-69000000D03*
X79250000Y-97250000D03*
X85750000Y-97250000D03*
X79250000Y-101750000D03*
X85750000Y-101750000D03*
D13*
X156000000Y-49750000D03*
X151000000Y-44750000D03*
X146000000Y-49750000D03*
D14*
X68500000Y-104250000D03*
X75000000Y-104250000D03*
X68500000Y-108750000D03*
X75000000Y-108750000D03*
D10*
X136500000Y-43170000D03*
D11*
X136500000Y-45710000D03*
X136500000Y-48250000D03*
D18*
X113420000Y-115000000D03*
D19*
X115960000Y-115000000D03*
D14*
X142750000Y-78750000D03*
X149250000Y-78750000D03*
X142750000Y-83250000D03*
X149250000Y-83250000D03*
D10*
X131945000Y-43170000D03*
D11*
X131945000Y-45710000D03*
X131945000Y-48250000D03*
D18*
X122185000Y-115000000D03*
D19*
X124725000Y-115000000D03*
D21*
X96925000Y-92800000D03*
D12*
X99465000Y-92800000D03*
X102005000Y-92800000D03*
X104545000Y-92800000D03*
X107085000Y-92800000D03*
X109625000Y-92800000D03*
X112165000Y-92800000D03*
X114705000Y-92800000D03*
X117245000Y-92800000D03*
X119785000Y-92800000D03*
D22*
X132250000Y-99305000D03*
D23*
X132250000Y-106925000D03*
D24*
X70525000Y-41420000D03*
D11*
X67985000Y-41420000D03*
D22*
X158500000Y-99365000D03*
D23*
X158500000Y-106985000D03*
D22*
X151000000Y-99365000D03*
D23*
X151000000Y-106985000D03*
D25*
X104140000Y-58420000D03*
D26*
X106680000Y-58420000D03*
X109220000Y-58420000D03*
X111760000Y-58420000D03*
X114300000Y-58420000D03*
X116840000Y-58420000D03*
X119380000Y-58420000D03*
X121920000Y-58420000D03*
X124460000Y-58420000D03*
X127000000Y-58420000D03*
X104140000Y-104140000D03*
X106680000Y-104140000D03*
X109220000Y-104140000D03*
X111760000Y-104140000D03*
X114300000Y-104140000D03*
X116840000Y-104140000D03*
X119380000Y-104140000D03*
X121920000Y-104140000D03*
X124460000Y-104140000D03*
X127000000Y-104140000D03*
X104140000Y-60960000D03*
X106680000Y-60960000D03*
X109220000Y-60960000D03*
X111760000Y-60960000D03*
X114300000Y-60960000D03*
X116840000Y-60960000D03*
X119380000Y-60960000D03*
X121920000Y-60960000D03*
X124460000Y-60960000D03*
X127000000Y-60960000D03*
X104140000Y-101600000D03*
X106680000Y-101600000D03*
X109220000Y-101600000D03*
X111760000Y-101600000D03*
X114300000Y-101600000D03*
X116840000Y-101600000D03*
X119380000Y-101600000D03*
X121920000Y-101600000D03*
X124460000Y-101600000D03*
X127000000Y-101600000D03*
D22*
X149810000Y-60750000D03*
D23*
X142190000Y-60750000D03*
D22*
X136000000Y-99305000D03*
D23*
X136000000Y-106925000D03*
D22*
X107940000Y-122750000D03*
D23*
X115560000Y-122750000D03*
D24*
X62775000Y-41500000D03*
D11*
X60235000Y-41500000D03*
D24*
X86141750Y-41500000D03*
D11*
X83601750Y-41500000D03*
D22*
X143500000Y-99365000D03*
D23*
X143500000Y-106985000D03*
D22*
X68000000Y-86250000D03*
D23*
X75620000Y-86250000D03*
D22*
X149870000Y-87000000D03*
D23*
X142250000Y-87000000D03*
D24*
X78260000Y-41500000D03*
D11*
X75720000Y-41500000D03*
D22*
X132120000Y-122750000D03*
D23*
X139740000Y-122750000D03*
D22*
X128250000Y-69880000D03*
D23*
X128250000Y-77500000D03*
D22*
X54250000Y-103250000D03*
D23*
X54250000Y-95630000D03*
D22*
X120000000Y-122750000D03*
D23*
X127620000Y-122750000D03*
D22*
X89500000Y-95750000D03*
D23*
X89500000Y-103370000D03*
D22*
X139750000Y-99365000D03*
D23*
X139750000Y-106985000D03*
D22*
X68000000Y-112250000D03*
D23*
X75620000Y-112250000D03*
D22*
X163195000Y-77810000D03*
D23*
X163195000Y-70190000D03*
D22*
X154750000Y-99305000D03*
D23*
X154750000Y-106925000D03*
D22*
X147250000Y-99365000D03*
D23*
X147250000Y-106985000D03*
D22*
X144250000Y-122750000D03*
D23*
X151870000Y-122750000D03*
D27*
X85725000Y-53975000D03*
X81915000Y-46355000D03*
X77470000Y-76835000D03*
X98882525Y-106857475D03*
X96520000Y-106045000D03*
X75565000Y-76835000D03*
X128905000Y-84455000D03*
X121920000Y-64770000D03*
X111760000Y-98425000D03*
X120015000Y-99100000D03*
X113030000Y-98425000D03*
X117614798Y-99239798D03*
X106680000Y-54610000D03*
X96520000Y-54015000D03*
X94615000Y-76200000D03*
X135890000Y-54610000D03*
X154305000Y-56515000D03*
X112395000Y-50800000D03*
X89535000Y-53975000D03*
X92075000Y-50165000D03*
X99695000Y-68580000D03*
X114300000Y-54610000D03*
X99060000Y-62865000D03*
X101600000Y-73090000D03*
X116205000Y-55880000D03*
X81280000Y-91440000D03*
X163195000Y-99695000D03*
X95250000Y-55880000D03*
X94615000Y-53340000D03*
X130175000Y-61595000D03*
X130810000Y-60325000D03*
X88265000Y-100370000D03*
X90805000Y-92710000D03*
X121220000Y-76200000D03*
X113030000Y-99695000D03*
X130810000Y-86360000D03*
X133985000Y-83185000D03*
X131445000Y-91440000D03*
X137160000Y-88265000D03*
X109220000Y-73090000D03*
X90763630Y-100369999D03*
X93345000Y-106680000D03*
X109220000Y-69850000D03*
X89535000Y-64770000D03*
X71120000Y-62865000D03*
X112217525Y-72212525D03*
X92710000Y-66635000D03*
X113030000Y-107950000D03*
X104140000Y-108585000D03*
X98465000Y-104140000D03*
X134620000Y-109855000D03*
X130175000Y-109815000D03*
X97790000Y-107275000D03*
X120650000Y-97220000D03*
X124460000Y-80645000D03*
X125730000Y-95820000D03*
X125730000Y-97750000D03*
X99695000Y-57150000D03*
X88265000Y-75565000D03*
X92075000Y-70485000D03*
X104140000Y-69850000D03*
X107950000Y-68580000D03*
X97790000Y-69215000D03*
D28*
X85725000Y-53975000D02*
X81915000Y-50165000D01*
X98070050Y-106045000D02*
X98882525Y-106857475D01*
X76835000Y-76200000D02*
X76835000Y-75492500D01*
X77470000Y-76835000D02*
X76835000Y-76200000D01*
X161250000Y-68245000D02*
X163195000Y-70190000D01*
X76835000Y-75492500D02*
X74170000Y-72827500D01*
X81915000Y-50165000D02*
X81915000Y-46355000D01*
X96520000Y-106045000D02*
X98070050Y-106045000D01*
X161250000Y-52330000D02*
X161250000Y-68245000D01*
D29*
X132000000Y-81360000D02*
X128905000Y-84455000D01*
X153500000Y-76000000D02*
X153500000Y-79000000D01*
X83601750Y-41500000D02*
X86141750Y-41500000D01*
X149250000Y-71750000D02*
X153500000Y-76000000D01*
X75000000Y-94500000D02*
X75000000Y-97500000D01*
X79250000Y-104500000D02*
X79250000Y-101750000D01*
X95497500Y-96767500D02*
X90665000Y-101600000D01*
X119380000Y-97155000D02*
X95885000Y-97155000D01*
X95885000Y-97155000D02*
X95497500Y-96767500D01*
X74805000Y-49967500D02*
X75134250Y-49967500D01*
X68455000Y-49967500D02*
X74805000Y-49967500D01*
X149250000Y-69000000D02*
X149250000Y-71750000D01*
X142750000Y-83250000D02*
X149250000Y-83250000D01*
X73097500Y-76835000D02*
X69090000Y-72827500D01*
X67197765Y-49967500D02*
X61470000Y-55695265D01*
X69090000Y-62740000D02*
X69090000Y-72827500D01*
X75000000Y-94500000D02*
X68500000Y-94500000D01*
X75134250Y-49967500D02*
X83601750Y-41500000D01*
X138500000Y-79000000D02*
X142750000Y-83250000D01*
X85900000Y-101600000D02*
X85750000Y-101750000D01*
X132000000Y-76000000D02*
X132000000Y-81360000D01*
X153500000Y-76000000D02*
X160000000Y-76000000D01*
X61470000Y-55695265D02*
X61470000Y-60127500D01*
X119785000Y-96750000D02*
X119380000Y-97155000D01*
X86141750Y-41500000D02*
X103061750Y-58420000D01*
X75000000Y-97500000D02*
X79250000Y-101750000D01*
X103061750Y-58420000D02*
X104140000Y-58420000D01*
X66477500Y-60127500D02*
X69090000Y-62740000D01*
X103600000Y-114535000D02*
X90665000Y-101600000D01*
X61470000Y-60127500D02*
X66477500Y-60127500D01*
X75000000Y-108750000D02*
X79250000Y-104500000D01*
X142750000Y-71750000D02*
X138500000Y-76000000D01*
X99465000Y-92800000D02*
X95497500Y-96767500D01*
X153500000Y-79000000D02*
X149250000Y-83250000D01*
X90665000Y-101600000D02*
X85900000Y-101600000D01*
X58000000Y-101750000D02*
X64500000Y-101750000D01*
X103600000Y-117950000D02*
X103600000Y-114535000D01*
X142750000Y-69000000D02*
X142750000Y-71750000D01*
X138500000Y-76000000D02*
X132000000Y-76000000D01*
X68500000Y-108750000D02*
X75000000Y-108750000D01*
X138500000Y-76000000D02*
X138500000Y-79000000D01*
X142750000Y-69000000D02*
X149250000Y-69000000D01*
X119785000Y-92800000D02*
X119785000Y-96750000D01*
X85750000Y-101750000D02*
X79250000Y-101750000D01*
X68500000Y-94500000D02*
X68500000Y-97750000D01*
X68455000Y-49967500D02*
X67197765Y-49967500D01*
X75565000Y-76835000D02*
X73097500Y-76835000D01*
X68500000Y-97750000D02*
X64500000Y-101750000D01*
D28*
X119380000Y-55880000D02*
X119380000Y-58420000D01*
X120015000Y-55245000D02*
X119380000Y-55880000D01*
X131445000Y-54610000D02*
X120015000Y-54610000D01*
X121920000Y-64770000D02*
X128905000Y-64770000D01*
X135255000Y-58420000D02*
X131445000Y-54610000D01*
X128905000Y-64770000D02*
X135255000Y-58420000D01*
X120015000Y-54610000D02*
X120015000Y-55245000D01*
X111760000Y-109855000D02*
X111760000Y-104140000D01*
X111760000Y-98425000D02*
X101600000Y-98425000D01*
X96520000Y-103505000D02*
X102870000Y-109855000D01*
X102870000Y-109855000D02*
X111760000Y-109855000D01*
X101600000Y-98425000D02*
X96520000Y-103505000D01*
X120305364Y-99801000D02*
X120716000Y-99390364D01*
X120716000Y-98961454D02*
X124886000Y-94791454D01*
X117901000Y-100803364D02*
X118903364Y-99801000D01*
X124886000Y-91263545D02*
X124001454Y-90379000D01*
X118903364Y-99801000D02*
X120305364Y-99801000D01*
X117901000Y-103079000D02*
X117901000Y-100803364D01*
X114586000Y-90379000D02*
X112165000Y-92800000D01*
X116840000Y-104140000D02*
X117901000Y-103079000D01*
X124886000Y-94791454D02*
X124886000Y-91263545D01*
X120716000Y-99390364D02*
X120716000Y-98961454D01*
X124001454Y-90379000D02*
X114586000Y-90379000D01*
D30*
X120015000Y-99060000D02*
X120015000Y-99100000D01*
X117245000Y-91035000D02*
X117475000Y-90805000D01*
X117475000Y-90805000D02*
X123825000Y-90805000D01*
X117245000Y-92800000D02*
X117245000Y-91035000D01*
X124460000Y-94615000D02*
X120015000Y-99060000D01*
X124460000Y-91440000D02*
X124460000Y-94615000D01*
X123825000Y-90805000D02*
X124460000Y-91440000D01*
D28*
X116800000Y-98425000D02*
X117614798Y-99239798D01*
X113030000Y-98425000D02*
X116800000Y-98425000D01*
D30*
X127000000Y-88900000D02*
X126365000Y-88265000D01*
X104545000Y-89130000D02*
X104545000Y-92800000D01*
X104775000Y-88900000D02*
X104545000Y-89130000D01*
X127000000Y-101600000D02*
X127000000Y-88900000D01*
X126365000Y-88265000D02*
X104775000Y-88265000D01*
X104775000Y-88265000D02*
X104775000Y-88900000D01*
X115560000Y-115400000D02*
X115960000Y-115000000D01*
X115560000Y-122750000D02*
X115560000Y-115400000D01*
D28*
X85750000Y-97250000D02*
X87250000Y-95750000D01*
X94615000Y-76200000D02*
X94615000Y-71120000D01*
X93980000Y-64135000D02*
X93980000Y-55245000D01*
X87250000Y-95750000D02*
X89500000Y-95750000D01*
X95210000Y-54015000D02*
X96520000Y-54015000D01*
X85750000Y-97250000D02*
X79250000Y-97250000D01*
X90805000Y-67310000D02*
X93980000Y-64135000D01*
X106680000Y-54610000D02*
X106680000Y-58420000D01*
X93980000Y-55245000D02*
X95210000Y-54015000D01*
X94615000Y-71120000D02*
X90805000Y-67310000D01*
D30*
X127620000Y-117895000D02*
X124725000Y-115000000D01*
X127620000Y-122750000D02*
X127620000Y-117895000D01*
D28*
X135255000Y-53975000D02*
X116205000Y-53975000D01*
X161250000Y-49790000D02*
X154525000Y-56515000D01*
X135890000Y-54610000D02*
X135255000Y-53975000D01*
X116205000Y-53975000D02*
X111760000Y-58420000D01*
X154525000Y-56515000D02*
X154305000Y-56515000D01*
D30*
X89535000Y-52705000D02*
X92075000Y-50165000D01*
X112395000Y-50800000D02*
X114300000Y-52705000D01*
X99695000Y-68580000D02*
X99695000Y-63500000D01*
X68500000Y-104250000D02*
X65295000Y-104250000D01*
X114300000Y-52705000D02*
X114300000Y-54610000D01*
X89535000Y-53975000D02*
X89535000Y-52705000D01*
X99630000Y-73090000D02*
X101600000Y-73090000D01*
X68500000Y-104250000D02*
X75000000Y-104250000D01*
X116205000Y-55880000D02*
X116205000Y-56515000D01*
X116205000Y-56515000D02*
X114300000Y-58420000D01*
X99695000Y-63500000D02*
X99060000Y-62865000D01*
X81280000Y-91440000D02*
X99630000Y-73090000D01*
X65295000Y-104250000D02*
X64770000Y-104775000D01*
X64770000Y-104775000D02*
X64770000Y-109020000D01*
X64770000Y-109020000D02*
X68000000Y-112250000D01*
D28*
X108585000Y-71120000D02*
X95250000Y-57785000D01*
X95250000Y-57785000D02*
X95250000Y-55880000D01*
X113665000Y-71120000D02*
X108585000Y-71120000D01*
X155575000Y-92075000D02*
X134620000Y-92075000D01*
X134620000Y-92075000D02*
X113665000Y-71120000D01*
X163195000Y-99695000D02*
X155575000Y-92075000D01*
D30*
X70485000Y-78105000D02*
X77470000Y-78105000D01*
X92075000Y-63500000D02*
X92075000Y-55880000D01*
X54250000Y-103250000D02*
X54250000Y-101000000D01*
X54250000Y-101000000D02*
X58000000Y-97250000D01*
X69215000Y-78105000D02*
X70485000Y-78105000D01*
X64135000Y-96885000D02*
X64135000Y-83185000D01*
X64135000Y-83185000D02*
X69215000Y-78105000D01*
X64500000Y-97250000D02*
X58000000Y-97250000D01*
X77470000Y-78105000D02*
X92075000Y-63500000D01*
X92075000Y-55880000D02*
X94615000Y-53340000D01*
X64500000Y-97250000D02*
X64135000Y-96885000D01*
D28*
X130175000Y-61595000D02*
X130810000Y-61595000D01*
X128905000Y-55880000D02*
X124460000Y-55880000D01*
X130810000Y-61595000D02*
X132715000Y-59690000D01*
X124460000Y-55880000D02*
X124460000Y-58420000D01*
X132715000Y-59690000D02*
X128905000Y-55880000D01*
X128905000Y-58420000D02*
X127000000Y-58420000D01*
X130810000Y-60325000D02*
X128905000Y-58420000D01*
D30*
X142750000Y-64500000D02*
X149250000Y-64500000D01*
X149810000Y-63940000D02*
X149250000Y-64500000D01*
X90805000Y-92710000D02*
X90805000Y-97830000D01*
X130175000Y-67310000D02*
X128270000Y-67310000D01*
X90805000Y-97830000D02*
X88265000Y-100370000D01*
X128270000Y-67310000D02*
X121220000Y-74360000D01*
X121220000Y-74360000D02*
X121220000Y-76200000D01*
X142750000Y-64500000D02*
X139940000Y-67310000D01*
X149810000Y-60750000D02*
X149810000Y-63940000D01*
X139940000Y-67310000D02*
X130175000Y-67310000D01*
D28*
X100330000Y-104775000D02*
X102870000Y-107315000D01*
X106045000Y-107315000D02*
X109220000Y-104140000D01*
X113030000Y-99695000D02*
X102870000Y-99695000D01*
X100330000Y-102235000D02*
X100330000Y-104775000D01*
X102870000Y-107315000D02*
X106045000Y-107315000D01*
X102870000Y-99695000D02*
X100330000Y-102235000D01*
X133985000Y-83185000D02*
X130810000Y-86360000D01*
D30*
X127245000Y-106925000D02*
X124460000Y-104140000D01*
X132250000Y-106925000D02*
X127245000Y-106925000D01*
D28*
X139700000Y-91440000D02*
X149860000Y-91440000D01*
X128270000Y-104140000D02*
X130175000Y-102235000D01*
X137160000Y-88265000D02*
X139700000Y-90805000D01*
X139700000Y-90805000D02*
X139700000Y-91440000D01*
X130175000Y-102235000D02*
X130175000Y-92710000D01*
D30*
X153500000Y-71500000D02*
X160000000Y-71500000D01*
X163195000Y-74695000D02*
X163195000Y-77810000D01*
X160000000Y-71500000D02*
X163195000Y-74695000D01*
X163195000Y-77810000D02*
X149860000Y-91145000D01*
D28*
X127000000Y-104140000D02*
X128270000Y-104140000D01*
D30*
X149860000Y-91145000D02*
X149860000Y-91440000D01*
D28*
X130175000Y-92710000D02*
X131445000Y-91440000D01*
X109220000Y-60960000D02*
X109220000Y-69850000D01*
X93345000Y-118745000D02*
X94615000Y-120015000D01*
X108520000Y-73090000D02*
X91440000Y-90170000D01*
X94615000Y-120015000D02*
X105205000Y-120015000D01*
X92550202Y-98583427D02*
X90763630Y-100369999D01*
X92550202Y-97630202D02*
X92550202Y-98583427D01*
X109220000Y-73090000D02*
X108520000Y-73090000D01*
X92075000Y-97155000D02*
X92550202Y-97630202D01*
X92075000Y-90805000D02*
X92075000Y-97155000D01*
X93345000Y-106680000D02*
X93345000Y-118745000D01*
X105205000Y-120015000D02*
X107940000Y-122750000D01*
X91440000Y-90170000D02*
X92075000Y-90805000D01*
X127000000Y-67945000D02*
X116840000Y-67945000D01*
X116840000Y-67945000D02*
X111760000Y-62865000D01*
X111760000Y-62865000D02*
X111760000Y-60960000D01*
X149893190Y-58606810D02*
X136338190Y-58606810D01*
X161250000Y-47250000D02*
X149893190Y-58606810D01*
X161250000Y-47585000D02*
X161290000Y-47625000D01*
X161250000Y-47250000D02*
X161250000Y-47585000D01*
X136338190Y-58606810D02*
X127000000Y-67945000D01*
D30*
X67985000Y-41420000D02*
X70525000Y-41420000D01*
X68455000Y-55047500D02*
X74805000Y-55047500D01*
D28*
X112040050Y-72390000D02*
X112217525Y-72212525D01*
X110490000Y-72390000D02*
X112040050Y-72390000D01*
X87630000Y-62865000D02*
X89535000Y-64770000D01*
X98465000Y-72390000D02*
X110490000Y-72390000D01*
X71120000Y-62865000D02*
X87630000Y-62865000D01*
X92710000Y-66635000D02*
X98465000Y-72390000D01*
D30*
X136555000Y-48305000D02*
X136500000Y-48250000D01*
X141000000Y-48305000D02*
X136555000Y-48305000D01*
X114895000Y-109815000D02*
X113030000Y-107950000D01*
X154750000Y-106925000D02*
X151820000Y-109855000D01*
X151820000Y-109855000D02*
X134620000Y-109855000D01*
X130175000Y-109815000D02*
X114895000Y-109815000D01*
X158440000Y-106925000D02*
X158500000Y-106985000D01*
X154750000Y-106925000D02*
X158440000Y-106925000D01*
X104140000Y-108585000D02*
X102910000Y-108585000D01*
X102910000Y-108585000D02*
X98465000Y-104140000D01*
X132435000Y-110490000D02*
X101005000Y-110490000D01*
X101005000Y-110490000D02*
X97790000Y-107275000D01*
X136000000Y-106925000D02*
X132435000Y-110490000D01*
X136000000Y-106925000D02*
X139690000Y-106925000D01*
X139690000Y-106925000D02*
X139750000Y-106985000D01*
X68500000Y-90000000D02*
X75000000Y-90000000D01*
X68000000Y-86250000D02*
X68000000Y-89500000D01*
X68000000Y-89500000D02*
X68500000Y-90000000D01*
X132000000Y-71500000D02*
X138500000Y-71500000D01*
X116840000Y-101030000D02*
X116840000Y-101600000D01*
X132000000Y-71500000D02*
X124460000Y-79040000D01*
X128250000Y-69880000D02*
X130380000Y-69880000D01*
X130380000Y-69880000D02*
X132000000Y-71500000D01*
X120650000Y-97220000D02*
X116840000Y-101030000D01*
X124460000Y-79040000D02*
X124460000Y-80645000D01*
X125730000Y-95820000D02*
X125730000Y-97750000D01*
X139740000Y-121265000D02*
X139740000Y-122750000D01*
X133475000Y-115000000D02*
X139740000Y-121265000D01*
X150000000Y-122750000D02*
X151870000Y-122750000D01*
X142250000Y-115000000D02*
X150000000Y-122750000D01*
X147143000Y-50893000D02*
X154857000Y-50893000D01*
X146000000Y-49750000D02*
X147143000Y-50893000D01*
X154857000Y-50893000D02*
X156000000Y-49750000D01*
X144985000Y-49750000D02*
X146000000Y-49750000D01*
X141000000Y-45765000D02*
X144985000Y-49750000D01*
D28*
X97790000Y-69215000D02*
X98425000Y-69850000D01*
X98425000Y-69850000D02*
X104140000Y-69850000D01*
X99695000Y-60325000D02*
X99695000Y-57150000D01*
X88265000Y-74295000D02*
X92075000Y-70485000D01*
X107950000Y-68580000D02*
X99695000Y-60325000D01*
X88265000Y-75565000D02*
X88265000Y-74295000D01*
D30*
X124460000Y-95885000D02*
X125730000Y-94615000D01*
X107950000Y-89535000D02*
X107085000Y-90400000D01*
X125730000Y-90170000D02*
X125095000Y-89535000D01*
X125730000Y-94615000D02*
X125730000Y-90170000D01*
X107085000Y-90400000D02*
X107085000Y-92800000D01*
X125095000Y-89535000D02*
X107950000Y-89535000D01*
X124460000Y-101600000D02*
X124460000Y-95885000D01*
X60235000Y-41500000D02*
X62775000Y-41500000D01*
X139690000Y-99305000D02*
X139750000Y-99365000D01*
X133624000Y-40294000D02*
X136500000Y-43170000D01*
X139750000Y-99365000D02*
X143500000Y-99365000D01*
X136000000Y-99305000D02*
X139690000Y-99305000D01*
X132250000Y-99305000D02*
X136000000Y-99305000D01*
X63981000Y-40294000D02*
X133624000Y-40294000D01*
X151000000Y-99365000D02*
X154690000Y-99365000D01*
X155185000Y-99305000D02*
X155245000Y-99365000D01*
X145710000Y-97155000D02*
X148790000Y-97155000D01*
X136500000Y-43170000D02*
X140945000Y-43170000D01*
X154690000Y-99365000D02*
X154750000Y-99305000D01*
X148790000Y-97155000D02*
X151000000Y-99365000D01*
X154750000Y-99305000D02*
X155185000Y-99305000D01*
X62775000Y-41500000D02*
X63981000Y-40294000D01*
X155245000Y-99365000D02*
X158500000Y-99365000D01*
X140945000Y-43170000D02*
X141000000Y-43225000D01*
X143500000Y-99365000D02*
X145710000Y-97155000D01*
X136500000Y-45710000D02*
X133960000Y-43170000D01*
X133960000Y-43170000D02*
X131945000Y-43170000D01*
X143500000Y-106985000D02*
X147250000Y-103235000D01*
X147250000Y-103235000D02*
X147250000Y-99365000D01*
M02*
