M48
; DRILL file {KiCad 9.0.0} date 2025-03-22T14:34:50-0500
; FORMAT={-:-/ absolute / metric / decimal}
; #@! TF.CreationDate,2025-03-22T14:34:50-05:00
; #@! TF.GenerationSoftware,Kicad,Pcbnew,9.0.0
; #@! TF.FileFunction,Plated,1,2,PTH
FMAT,2
METRIC
; #@! TA.AperFunction,Plated,PTH,ViaDrill
T1C0.400
; #@! TA.AperFunction,Plated,PTH,ComponentDrill
T2C0.700
; #@! TA.AperFunction,Plated,PTH,ComponentDrill
T3C0.890
; #@! TA.AperFunction,Plated,PTH,ComponentDrill
T4C0.900
; #@! TA.AperFunction,Plated,PTH,ComponentDrill
T5C1.000
; #@! TA.AperFunction,Plated,PTH,ComponentDrill
T6C1.016
; #@! TA.AperFunction,Plated,PTH,ComponentDrill
T7C1.100
; #@! TA.AperFunction,Plated,PTH,ComponentDrill
T8C1.200
; #@! TA.AperFunction,Plated,PTH,ComponentDrill
T9C1.397
; #@! TA.AperFunction,Plated,PTH,ComponentDrill
T10C1.524
; #@! TA.AperFunction,Plated,PTH,ComponentDrill
T11C3.175
%
G90
G05
T1
X71.12Y-62.865
X75.565Y-76.835
X77.47Y-76.835
X81.28Y-91.44
X81.915Y-46.355
X85.725Y-53.975
X88.265Y-75.565
X88.265Y-100.37
X89.535Y-53.975
X89.535Y-64.77
X90.764Y-100.37
X90.805Y-92.71
X92.075Y-50.165
X92.075Y-70.485
X92.71Y-66.635
X93.345Y-106.68
X94.615Y-53.34
X94.615Y-76.2
X95.25Y-55.88
X96.52Y-54.015
X96.52Y-106.045
X97.79Y-69.215
X97.79Y-107.275
X98.465Y-104.14
X98.883Y-106.857
X99.06Y-62.865
X99.695Y-57.15
X99.695Y-68.58
X101.6Y-73.09
X104.14Y-69.85
X104.14Y-108.585
X106.68Y-54.61
X107.95Y-68.58
X109.22Y-69.85
X109.22Y-73.09
X111.76Y-98.425
X112.218Y-72.213
X112.395Y-50.8
X113.03Y-98.425
X113.03Y-99.695
X113.03Y-107.95
X114.3Y-54.61
X116.205Y-55.88
X117.615Y-99.24
X120.015Y-99.1
X120.65Y-97.22
X121.22Y-76.2
X121.92Y-64.77
X124.46Y-80.645
X125.73Y-95.82
X125.73Y-97.75
X128.905Y-84.455
X130.175Y-61.595
X130.175Y-109.815
X130.81Y-60.325
X130.81Y-86.36
X131.445Y-91.44
X133.985Y-83.185
X134.62Y-109.855
X135.89Y-54.61
X137.16Y-88.265
X154.305Y-56.515
X163.195Y-99.695
T2
X54.25Y-95.63
X54.25Y-103.25
X68.0Y-86.25
X68.0Y-112.25
X75.62Y-86.25
X75.62Y-112.25
X89.5Y-95.75
X89.5Y-103.37
X107.94Y-122.75
X115.56Y-122.75
X120.0Y-122.75
X127.62Y-122.75
X128.25Y-69.88
X128.25Y-77.5
X132.12Y-122.75
X132.25Y-99.305
X132.25Y-106.925
X136.0Y-99.305
X136.0Y-106.925
X139.74Y-122.75
X139.75Y-99.365
X139.75Y-106.985
X142.19Y-60.75
X142.25Y-87.0
X143.5Y-99.365
X143.5Y-106.985
X144.25Y-122.75
X147.25Y-99.365
X147.25Y-106.985
X149.81Y-60.75
X149.87Y-87.0
X151.0Y-99.365
X151.0Y-106.985
X151.87Y-122.75
X154.75Y-99.305
X154.75Y-106.925
X158.5Y-99.365
X158.5Y-106.985
X163.195Y-70.19
X163.195Y-77.81
T3
X104.14Y-58.42
X104.14Y-60.96
X104.14Y-101.6
X104.14Y-104.14
X106.68Y-58.42
X106.68Y-60.96
X106.68Y-101.6
X106.68Y-104.14
X109.22Y-58.42
X109.22Y-60.96
X109.22Y-101.6
X109.22Y-104.14
X111.76Y-58.42
X111.76Y-60.96
X111.76Y-101.6
X111.76Y-104.14
X114.3Y-58.42
X114.3Y-60.96
X114.3Y-101.6
X114.3Y-104.14
X116.84Y-58.42
X116.84Y-60.96
X116.84Y-101.6
X116.84Y-104.14
X119.38Y-58.42
X119.38Y-60.96
X119.38Y-101.6
X119.38Y-104.14
X121.92Y-58.42
X121.92Y-60.96
X121.92Y-101.6
X121.92Y-104.14
X124.46Y-58.42
X124.46Y-60.96
X124.46Y-101.6
X124.46Y-104.14
X127.0Y-58.42
X127.0Y-60.96
X127.0Y-101.6
X127.0Y-104.14
T4
X113.42Y-115.0
X115.96Y-115.0
X122.185Y-115.0
X124.725Y-115.0
X130.935Y-115.0
X133.475Y-115.0
X139.71Y-115.0
X142.25Y-115.0
T5
X60.235Y-41.5
X62.775Y-41.5
X67.985Y-41.42
X70.525Y-41.42
X75.72Y-41.5
X78.26Y-41.5
X83.602Y-41.5
X86.142Y-41.5
X131.945Y-43.17
X131.945Y-45.71
X131.945Y-48.25
X136.5Y-43.17
X136.5Y-45.71
X136.5Y-48.25
X141.0Y-43.225
X141.0Y-45.765
X141.0Y-48.305
X161.25Y-47.25
X161.25Y-49.79
X161.25Y-52.33
T6
X61.47Y-60.127
X61.47Y-62.667
X61.47Y-65.207
X68.455Y-49.968
X68.455Y-55.047
X69.09Y-72.828
X71.63Y-72.828
X74.17Y-72.828
X74.805Y-49.968
X74.805Y-55.047
X96.925Y-92.8
X99.465Y-92.8
X102.005Y-92.8
X104.545Y-92.8
X107.085Y-92.8
X109.625Y-92.8
X112.165Y-92.8
X114.705Y-92.8
X117.245Y-92.8
X119.785Y-92.8
T7
X58.0Y-97.25
X58.0Y-101.75
X64.5Y-97.25
X64.5Y-101.75
X68.5Y-90.0
X68.5Y-94.5
X68.5Y-104.25
X68.5Y-108.75
X75.0Y-90.0
X75.0Y-94.5
X75.0Y-104.25
X75.0Y-108.75
X79.25Y-97.25
X79.25Y-101.75
X85.75Y-97.25
X85.75Y-101.75
X132.0Y-71.5
X132.0Y-76.0
X138.5Y-71.5
X138.5Y-76.0
X142.75Y-64.5
X142.75Y-69.0
X142.75Y-78.75
X142.75Y-83.25
X149.25Y-64.5
X149.25Y-69.0
X149.25Y-78.75
X149.25Y-83.25
X153.5Y-71.5
X153.5Y-76.0
X160.0Y-71.5
X160.0Y-76.0
T8
X70.6Y-117.95
X70.6Y-121.45
X103.6Y-117.95
T9
X64.01Y-56.0
X64.01Y-69.335
X79.25Y-56.0
X79.25Y-69.335
T10
X146.0Y-49.75
X151.0Y-44.75
X156.0Y-49.75
T11
X54.61Y-41.91
X54.61Y-123.19
X161.29Y-41.91
X161.29Y-123.19
M30
