G04 #@! TF.GenerationSoftware,KiCad,Pcbnew,9.0.0*
G04 #@! TF.CreationDate,2025-03-22T14:34:33-05:00*
G04 #@! TF.ProjectId,TMB3956,544d4233-3935-4362-9e6b-696361645f70,v1.0.1*
G04 #@! TF.SameCoordinates,Original*
G04 #@! TF.FileFunction,Legend,Top*
G04 #@! TF.FilePolarity,Positive*
%FSLAX46Y46*%
G04 Gerber Fmt 4.6, Leading zero omitted, Abs format (unit mm)*
G04 Created by KiCad (PCBNEW 9.0.0) date 2025-03-22 14:34:33*
%MOMM*%
%LPD*%
G01*
G04 APERTURE LIST*
G04 Aperture macros list*
%AMRoundRect*
0 Rectangle with rounded corners*
0 $1 Rounding radius*
0 $2 $3 $4 $5 $6 $7 $8 $9 X,Y pos of 4 corners*
0 Add a 4 corners polygon primitive as box body*
4,1,4,$2,$3,$4,$5,$6,$7,$8,$9,$2,$3,0*
0 Add four circle primitives for the rounded corners*
1,1,$1+$1,$2,$3*
1,1,$1+$1,$4,$5*
1,1,$1+$1,$6,$7*
1,1,$1+$1,$8,$9*
0 Add four rect primitives between the rounded corners*
20,1,$1+$1,$2,$3,$4,$5,0*
20,1,$1+$1,$4,$5,$6,$7,0*
20,1,$1+$1,$6,$7,$8,$9,0*
20,1,$1+$1,$8,$9,$2,$3,0*%
G04 Aperture macros list end*
%ADD10C,0.101600*%
%ADD11C,0.300000*%
%ADD12C,0.150000*%
%ADD13C,0.100000*%
%ADD14C,0.120000*%
%ADD15C,0.000000*%
%ADD16C,0.127000*%
%ADD17C,0.203200*%
%ADD18R,1.700000X1.700000*%
%ADD19O,1.700000X1.700000*%
%ADD20C,1.778000*%
%ADD21C,2.286000*%
%ADD22C,2.000000*%
%ADD23C,2.700000*%
%ADD24R,1.750000X1.750000*%
%ADD25C,1.750000*%
%ADD26R,1.800000X1.800000*%
%ADD27C,1.800000*%
%ADD28C,4.318000*%
%ADD29C,2.200000*%
%ADD30RoundRect,0.102000X0.889000X-0.889000X0.889000X0.889000X-0.889000X0.889000X-0.889000X-0.889000X0*%
%ADD31C,1.982000*%
%ADD32C,1.400000*%
%ADD33O,1.400000X1.400000*%
%ADD34C,1.700000*%
%ADD35RoundRect,0.102000X-0.760000X0.760000X-0.760000X-0.760000X0.760000X-0.760000X0.760000X0.760000X0*%
%ADD36C,1.724000*%
G04 APERTURE END LIST*
D10*
X157849461Y-50826729D02*
X158466318Y-50826729D01*
X158466318Y-50826729D02*
X158538890Y-50790443D01*
X158538890Y-50790443D02*
X158575176Y-50754158D01*
X158575176Y-50754158D02*
X158611461Y-50681586D01*
X158611461Y-50681586D02*
X158611461Y-50536443D01*
X158611461Y-50536443D02*
X158575176Y-50463872D01*
X158575176Y-50463872D02*
X158538890Y-50427586D01*
X158538890Y-50427586D02*
X158466318Y-50391300D01*
X158466318Y-50391300D02*
X157849461Y-50391300D01*
X158611461Y-49629300D02*
X158611461Y-50064729D01*
X158611461Y-49847014D02*
X157849461Y-49847014D01*
X157849461Y-49847014D02*
X157958318Y-49919586D01*
X157958318Y-49919586D02*
X158030890Y-49992157D01*
X158030890Y-49992157D02*
X158067176Y-50064729D01*
X158611461Y-48867300D02*
X158248604Y-49121300D01*
X158611461Y-49302729D02*
X157849461Y-49302729D01*
X157849461Y-49302729D02*
X157849461Y-49012443D01*
X157849461Y-49012443D02*
X157885747Y-48939872D01*
X157885747Y-48939872D02*
X157922033Y-48903586D01*
X157922033Y-48903586D02*
X157994604Y-48867300D01*
X157994604Y-48867300D02*
X158103461Y-48867300D01*
X158103461Y-48867300D02*
X158176033Y-48903586D01*
X158176033Y-48903586D02*
X158212318Y-48939872D01*
X158212318Y-48939872D02*
X158248604Y-49012443D01*
X158248604Y-49012443D02*
X158248604Y-49302729D01*
X158611461Y-48613300D02*
X158103461Y-48214158D01*
X158103461Y-48613300D02*
X158611461Y-48214158D01*
X157885747Y-52967586D02*
X157849461Y-53040158D01*
X157849461Y-53040158D02*
X157849461Y-53149015D01*
X157849461Y-53149015D02*
X157885747Y-53257872D01*
X157885747Y-53257872D02*
X157958318Y-53330443D01*
X157958318Y-53330443D02*
X158030890Y-53366729D01*
X158030890Y-53366729D02*
X158176033Y-53403015D01*
X158176033Y-53403015D02*
X158284890Y-53403015D01*
X158284890Y-53403015D02*
X158430033Y-53366729D01*
X158430033Y-53366729D02*
X158502604Y-53330443D01*
X158502604Y-53330443D02*
X158575176Y-53257872D01*
X158575176Y-53257872D02*
X158611461Y-53149015D01*
X158611461Y-53149015D02*
X158611461Y-53076443D01*
X158611461Y-53076443D02*
X158575176Y-52967586D01*
X158575176Y-52967586D02*
X158538890Y-52931300D01*
X158538890Y-52931300D02*
X158284890Y-52931300D01*
X158284890Y-52931300D02*
X158284890Y-53076443D01*
X158611461Y-52604729D02*
X157849461Y-52604729D01*
X157849461Y-52604729D02*
X158611461Y-52169300D01*
X158611461Y-52169300D02*
X157849461Y-52169300D01*
X158611461Y-51806443D02*
X157849461Y-51806443D01*
X157849461Y-51806443D02*
X157849461Y-51625014D01*
X157849461Y-51625014D02*
X157885747Y-51516157D01*
X157885747Y-51516157D02*
X157958318Y-51443586D01*
X157958318Y-51443586D02*
X158030890Y-51407300D01*
X158030890Y-51407300D02*
X158176033Y-51371014D01*
X158176033Y-51371014D02*
X158284890Y-51371014D01*
X158284890Y-51371014D02*
X158430033Y-51407300D01*
X158430033Y-51407300D02*
X158502604Y-51443586D01*
X158502604Y-51443586D02*
X158575176Y-51516157D01*
X158575176Y-51516157D02*
X158611461Y-51625014D01*
X158611461Y-51625014D02*
X158611461Y-51806443D01*
D11*
X148090225Y-117800828D02*
X148947368Y-117800828D01*
X148518796Y-119300828D02*
X148518796Y-117800828D01*
X149447367Y-119300828D02*
X149447367Y-118300828D01*
X149447367Y-118586542D02*
X149518796Y-118443685D01*
X149518796Y-118443685D02*
X149590225Y-118372257D01*
X149590225Y-118372257D02*
X149733082Y-118300828D01*
X149733082Y-118300828D02*
X149875939Y-118300828D01*
X151018796Y-119300828D02*
X151018796Y-118515114D01*
X151018796Y-118515114D02*
X150947367Y-118372257D01*
X150947367Y-118372257D02*
X150804510Y-118300828D01*
X150804510Y-118300828D02*
X150518796Y-118300828D01*
X150518796Y-118300828D02*
X150375938Y-118372257D01*
X151018796Y-119229400D02*
X150875938Y-119300828D01*
X150875938Y-119300828D02*
X150518796Y-119300828D01*
X150518796Y-119300828D02*
X150375938Y-119229400D01*
X150375938Y-119229400D02*
X150304510Y-119086542D01*
X150304510Y-119086542D02*
X150304510Y-118943685D01*
X150304510Y-118943685D02*
X150375938Y-118800828D01*
X150375938Y-118800828D02*
X150518796Y-118729400D01*
X150518796Y-118729400D02*
X150875938Y-118729400D01*
X150875938Y-118729400D02*
X151018796Y-118657971D01*
X151590224Y-118300828D02*
X151947367Y-119300828D01*
X151947367Y-119300828D02*
X152304510Y-118300828D01*
X152875938Y-119300828D02*
X152875938Y-118300828D01*
X152875938Y-117800828D02*
X152804510Y-117872257D01*
X152804510Y-117872257D02*
X152875938Y-117943685D01*
X152875938Y-117943685D02*
X152947367Y-117872257D01*
X152947367Y-117872257D02*
X152875938Y-117800828D01*
X152875938Y-117800828D02*
X152875938Y-117943685D01*
X153518796Y-119229400D02*
X153661653Y-119300828D01*
X153661653Y-119300828D02*
X153947367Y-119300828D01*
X153947367Y-119300828D02*
X154090224Y-119229400D01*
X154090224Y-119229400D02*
X154161653Y-119086542D01*
X154161653Y-119086542D02*
X154161653Y-119015114D01*
X154161653Y-119015114D02*
X154090224Y-118872257D01*
X154090224Y-118872257D02*
X153947367Y-118800828D01*
X153947367Y-118800828D02*
X153733082Y-118800828D01*
X153733082Y-118800828D02*
X153590224Y-118729400D01*
X153590224Y-118729400D02*
X153518796Y-118586542D01*
X153518796Y-118586542D02*
X153518796Y-118515114D01*
X153518796Y-118515114D02*
X153590224Y-118372257D01*
X153590224Y-118372257D02*
X153733082Y-118300828D01*
X153733082Y-118300828D02*
X153947367Y-118300828D01*
X153947367Y-118300828D02*
X154090224Y-118372257D01*
X156447367Y-118515114D02*
X156661653Y-118586542D01*
X156661653Y-118586542D02*
X156733082Y-118657971D01*
X156733082Y-118657971D02*
X156804510Y-118800828D01*
X156804510Y-118800828D02*
X156804510Y-119015114D01*
X156804510Y-119015114D02*
X156733082Y-119157971D01*
X156733082Y-119157971D02*
X156661653Y-119229400D01*
X156661653Y-119229400D02*
X156518796Y-119300828D01*
X156518796Y-119300828D02*
X155947367Y-119300828D01*
X155947367Y-119300828D02*
X155947367Y-117800828D01*
X155947367Y-117800828D02*
X156447367Y-117800828D01*
X156447367Y-117800828D02*
X156590225Y-117872257D01*
X156590225Y-117872257D02*
X156661653Y-117943685D01*
X156661653Y-117943685D02*
X156733082Y-118086542D01*
X156733082Y-118086542D02*
X156733082Y-118229400D01*
X156733082Y-118229400D02*
X156661653Y-118372257D01*
X156661653Y-118372257D02*
X156590225Y-118443685D01*
X156590225Y-118443685D02*
X156447367Y-118515114D01*
X156447367Y-118515114D02*
X155947367Y-118515114D01*
X158018796Y-119229400D02*
X157875939Y-119300828D01*
X157875939Y-119300828D02*
X157590225Y-119300828D01*
X157590225Y-119300828D02*
X157447367Y-119229400D01*
X157447367Y-119229400D02*
X157375939Y-119086542D01*
X157375939Y-119086542D02*
X157375939Y-118515114D01*
X157375939Y-118515114D02*
X157447367Y-118372257D01*
X157447367Y-118372257D02*
X157590225Y-118300828D01*
X157590225Y-118300828D02*
X157875939Y-118300828D01*
X157875939Y-118300828D02*
X158018796Y-118372257D01*
X158018796Y-118372257D02*
X158090225Y-118515114D01*
X158090225Y-118515114D02*
X158090225Y-118657971D01*
X158090225Y-118657971D02*
X157375939Y-118800828D01*
X159375939Y-119300828D02*
X159375939Y-118515114D01*
X159375939Y-118515114D02*
X159304510Y-118372257D01*
X159304510Y-118372257D02*
X159161653Y-118300828D01*
X159161653Y-118300828D02*
X158875939Y-118300828D01*
X158875939Y-118300828D02*
X158733081Y-118372257D01*
X159375939Y-119229400D02*
X159233081Y-119300828D01*
X159233081Y-119300828D02*
X158875939Y-119300828D01*
X158875939Y-119300828D02*
X158733081Y-119229400D01*
X158733081Y-119229400D02*
X158661653Y-119086542D01*
X158661653Y-119086542D02*
X158661653Y-118943685D01*
X158661653Y-118943685D02*
X158733081Y-118800828D01*
X158733081Y-118800828D02*
X158875939Y-118729400D01*
X158875939Y-118729400D02*
X159233081Y-118729400D01*
X159233081Y-118729400D02*
X159375939Y-118657971D01*
X160733082Y-119229400D02*
X160590224Y-119300828D01*
X160590224Y-119300828D02*
X160304510Y-119300828D01*
X160304510Y-119300828D02*
X160161653Y-119229400D01*
X160161653Y-119229400D02*
X160090224Y-119157971D01*
X160090224Y-119157971D02*
X160018796Y-119015114D01*
X160018796Y-119015114D02*
X160018796Y-118586542D01*
X160018796Y-118586542D02*
X160090224Y-118443685D01*
X160090224Y-118443685D02*
X160161653Y-118372257D01*
X160161653Y-118372257D02*
X160304510Y-118300828D01*
X160304510Y-118300828D02*
X160590224Y-118300828D01*
X160590224Y-118300828D02*
X160733082Y-118372257D01*
X161375938Y-119300828D02*
X161375938Y-117800828D01*
X162018796Y-119300828D02*
X162018796Y-118515114D01*
X162018796Y-118515114D02*
X161947367Y-118372257D01*
X161947367Y-118372257D02*
X161804510Y-118300828D01*
X161804510Y-118300828D02*
X161590224Y-118300828D01*
X161590224Y-118300828D02*
X161447367Y-118372257D01*
X161447367Y-118372257D02*
X161375938Y-118443685D01*
D10*
X127748270Y-48786461D02*
X127748270Y-48024461D01*
X127748270Y-48024461D02*
X128038556Y-48024461D01*
X128038556Y-48024461D02*
X128111127Y-48060747D01*
X128111127Y-48060747D02*
X128147413Y-48097033D01*
X128147413Y-48097033D02*
X128183699Y-48169604D01*
X128183699Y-48169604D02*
X128183699Y-48278461D01*
X128183699Y-48278461D02*
X128147413Y-48351033D01*
X128147413Y-48351033D02*
X128111127Y-48387318D01*
X128111127Y-48387318D02*
X128038556Y-48423604D01*
X128038556Y-48423604D02*
X127748270Y-48423604D01*
X128655413Y-48024461D02*
X128800556Y-48024461D01*
X128800556Y-48024461D02*
X128873127Y-48060747D01*
X128873127Y-48060747D02*
X128945699Y-48133318D01*
X128945699Y-48133318D02*
X128981984Y-48278461D01*
X128981984Y-48278461D02*
X128981984Y-48532461D01*
X128981984Y-48532461D02*
X128945699Y-48677604D01*
X128945699Y-48677604D02*
X128873127Y-48750176D01*
X128873127Y-48750176D02*
X128800556Y-48786461D01*
X128800556Y-48786461D02*
X128655413Y-48786461D01*
X128655413Y-48786461D02*
X128582842Y-48750176D01*
X128582842Y-48750176D02*
X128510270Y-48677604D01*
X128510270Y-48677604D02*
X128473984Y-48532461D01*
X128473984Y-48532461D02*
X128473984Y-48278461D01*
X128473984Y-48278461D02*
X128510270Y-48133318D01*
X128510270Y-48133318D02*
X128582842Y-48060747D01*
X128582842Y-48060747D02*
X128655413Y-48024461D01*
X129199699Y-48024461D02*
X129635128Y-48024461D01*
X129417413Y-48786461D02*
X129417413Y-48024461D01*
X157849461Y-47651729D02*
X158466318Y-47651729D01*
X158466318Y-47651729D02*
X158538890Y-47615443D01*
X158538890Y-47615443D02*
X158575176Y-47579158D01*
X158575176Y-47579158D02*
X158611461Y-47506586D01*
X158611461Y-47506586D02*
X158611461Y-47361443D01*
X158611461Y-47361443D02*
X158575176Y-47288872D01*
X158575176Y-47288872D02*
X158538890Y-47252586D01*
X158538890Y-47252586D02*
X158466318Y-47216300D01*
X158466318Y-47216300D02*
X157849461Y-47216300D01*
X158611461Y-46454300D02*
X158611461Y-46889729D01*
X158611461Y-46672014D02*
X157849461Y-46672014D01*
X157849461Y-46672014D02*
X157958318Y-46744586D01*
X157958318Y-46744586D02*
X158030890Y-46817157D01*
X158030890Y-46817157D02*
X158067176Y-46889729D01*
X157849461Y-46236586D02*
X157849461Y-45801158D01*
X158611461Y-46018872D02*
X157849461Y-46018872D01*
X158611461Y-45619729D02*
X158103461Y-45220587D01*
X158103461Y-45619729D02*
X158611461Y-45220587D01*
D11*
X148304510Y-110435282D02*
X148804510Y-110435282D01*
X149018796Y-111220996D02*
X148304510Y-111220996D01*
X148304510Y-111220996D02*
X148304510Y-109720996D01*
X148304510Y-109720996D02*
X149018796Y-109720996D01*
X150518796Y-111078139D02*
X150447368Y-111149568D01*
X150447368Y-111149568D02*
X150233082Y-111220996D01*
X150233082Y-111220996D02*
X150090225Y-111220996D01*
X150090225Y-111220996D02*
X149875939Y-111149568D01*
X149875939Y-111149568D02*
X149733082Y-111006710D01*
X149733082Y-111006710D02*
X149661653Y-110863853D01*
X149661653Y-110863853D02*
X149590225Y-110578139D01*
X149590225Y-110578139D02*
X149590225Y-110363853D01*
X149590225Y-110363853D02*
X149661653Y-110078139D01*
X149661653Y-110078139D02*
X149733082Y-109935282D01*
X149733082Y-109935282D02*
X149875939Y-109792425D01*
X149875939Y-109792425D02*
X150090225Y-109720996D01*
X150090225Y-109720996D02*
X150233082Y-109720996D01*
X150233082Y-109720996D02*
X150447368Y-109792425D01*
X150447368Y-109792425D02*
X150518796Y-109863853D01*
X151161653Y-110435282D02*
X151661653Y-110435282D01*
X151875939Y-111220996D02*
X151161653Y-111220996D01*
X151161653Y-111220996D02*
X151161653Y-109720996D01*
X151161653Y-109720996D02*
X151875939Y-109720996D01*
X152375939Y-109720996D02*
X153304511Y-109720996D01*
X153304511Y-109720996D02*
X152804511Y-110292425D01*
X152804511Y-110292425D02*
X153018796Y-110292425D01*
X153018796Y-110292425D02*
X153161654Y-110363853D01*
X153161654Y-110363853D02*
X153233082Y-110435282D01*
X153233082Y-110435282D02*
X153304511Y-110578139D01*
X153304511Y-110578139D02*
X153304511Y-110935282D01*
X153304511Y-110935282D02*
X153233082Y-111078139D01*
X153233082Y-111078139D02*
X153161654Y-111149568D01*
X153161654Y-111149568D02*
X153018796Y-111220996D01*
X153018796Y-111220996D02*
X152590225Y-111220996D01*
X152590225Y-111220996D02*
X152447368Y-111149568D01*
X152447368Y-111149568D02*
X152375939Y-111078139D01*
X154733082Y-111220996D02*
X153875939Y-111220996D01*
X154304510Y-111220996D02*
X154304510Y-109720996D01*
X154304510Y-109720996D02*
X154161653Y-109935282D01*
X154161653Y-109935282D02*
X154018796Y-110078139D01*
X154018796Y-110078139D02*
X153875939Y-110149568D01*
X155447367Y-111220996D02*
X155733081Y-111220996D01*
X155733081Y-111220996D02*
X155875938Y-111149568D01*
X155875938Y-111149568D02*
X155947367Y-111078139D01*
X155947367Y-111078139D02*
X156090224Y-110863853D01*
X156090224Y-110863853D02*
X156161653Y-110578139D01*
X156161653Y-110578139D02*
X156161653Y-110006710D01*
X156161653Y-110006710D02*
X156090224Y-109863853D01*
X156090224Y-109863853D02*
X156018796Y-109792425D01*
X156018796Y-109792425D02*
X155875938Y-109720996D01*
X155875938Y-109720996D02*
X155590224Y-109720996D01*
X155590224Y-109720996D02*
X155447367Y-109792425D01*
X155447367Y-109792425D02*
X155375938Y-109863853D01*
X155375938Y-109863853D02*
X155304510Y-110006710D01*
X155304510Y-110006710D02*
X155304510Y-110363853D01*
X155304510Y-110363853D02*
X155375938Y-110506710D01*
X155375938Y-110506710D02*
X155447367Y-110578139D01*
X155447367Y-110578139D02*
X155590224Y-110649568D01*
X155590224Y-110649568D02*
X155875938Y-110649568D01*
X155875938Y-110649568D02*
X156018796Y-110578139D01*
X156018796Y-110578139D02*
X156090224Y-110506710D01*
X156090224Y-110506710D02*
X156161653Y-110363853D01*
X156804509Y-111220996D02*
X156804509Y-109720996D01*
X157661652Y-111220996D02*
X157018795Y-110363853D01*
X157661652Y-109720996D02*
X156804509Y-110578139D01*
X148304510Y-113635912D02*
X148304510Y-112135912D01*
X148304510Y-112135912D02*
X148875939Y-112135912D01*
X148875939Y-112135912D02*
X149018796Y-112207341D01*
X149018796Y-112207341D02*
X149090225Y-112278769D01*
X149090225Y-112278769D02*
X149161653Y-112421626D01*
X149161653Y-112421626D02*
X149161653Y-112635912D01*
X149161653Y-112635912D02*
X149090225Y-112778769D01*
X149090225Y-112778769D02*
X149018796Y-112850198D01*
X149018796Y-112850198D02*
X148875939Y-112921626D01*
X148875939Y-112921626D02*
X148304510Y-112921626D01*
X150661653Y-113493055D02*
X150590225Y-113564484D01*
X150590225Y-113564484D02*
X150375939Y-113635912D01*
X150375939Y-113635912D02*
X150233082Y-113635912D01*
X150233082Y-113635912D02*
X150018796Y-113564484D01*
X150018796Y-113564484D02*
X149875939Y-113421626D01*
X149875939Y-113421626D02*
X149804510Y-113278769D01*
X149804510Y-113278769D02*
X149733082Y-112993055D01*
X149733082Y-112993055D02*
X149733082Y-112778769D01*
X149733082Y-112778769D02*
X149804510Y-112493055D01*
X149804510Y-112493055D02*
X149875939Y-112350198D01*
X149875939Y-112350198D02*
X150018796Y-112207341D01*
X150018796Y-112207341D02*
X150233082Y-112135912D01*
X150233082Y-112135912D02*
X150375939Y-112135912D01*
X150375939Y-112135912D02*
X150590225Y-112207341D01*
X150590225Y-112207341D02*
X150661653Y-112278769D01*
X151804510Y-112850198D02*
X152018796Y-112921626D01*
X152018796Y-112921626D02*
X152090225Y-112993055D01*
X152090225Y-112993055D02*
X152161653Y-113135912D01*
X152161653Y-113135912D02*
X152161653Y-113350198D01*
X152161653Y-113350198D02*
X152090225Y-113493055D01*
X152090225Y-113493055D02*
X152018796Y-113564484D01*
X152018796Y-113564484D02*
X151875939Y-113635912D01*
X151875939Y-113635912D02*
X151304510Y-113635912D01*
X151304510Y-113635912D02*
X151304510Y-112135912D01*
X151304510Y-112135912D02*
X151804510Y-112135912D01*
X151804510Y-112135912D02*
X151947368Y-112207341D01*
X151947368Y-112207341D02*
X152018796Y-112278769D01*
X152018796Y-112278769D02*
X152090225Y-112421626D01*
X152090225Y-112421626D02*
X152090225Y-112564484D01*
X152090225Y-112564484D02*
X152018796Y-112707341D01*
X152018796Y-112707341D02*
X151947368Y-112778769D01*
X151947368Y-112778769D02*
X151804510Y-112850198D01*
X151804510Y-112850198D02*
X151304510Y-112850198D01*
X154804510Y-113493055D02*
X154733082Y-113564484D01*
X154733082Y-113564484D02*
X154518796Y-113635912D01*
X154518796Y-113635912D02*
X154375939Y-113635912D01*
X154375939Y-113635912D02*
X154161653Y-113564484D01*
X154161653Y-113564484D02*
X154018796Y-113421626D01*
X154018796Y-113421626D02*
X153947367Y-113278769D01*
X153947367Y-113278769D02*
X153875939Y-112993055D01*
X153875939Y-112993055D02*
X153875939Y-112778769D01*
X153875939Y-112778769D02*
X153947367Y-112493055D01*
X153947367Y-112493055D02*
X154018796Y-112350198D01*
X154018796Y-112350198D02*
X154161653Y-112207341D01*
X154161653Y-112207341D02*
X154375939Y-112135912D01*
X154375939Y-112135912D02*
X154518796Y-112135912D01*
X154518796Y-112135912D02*
X154733082Y-112207341D01*
X154733082Y-112207341D02*
X154804510Y-112278769D01*
X156090225Y-113635912D02*
X156090225Y-112850198D01*
X156090225Y-112850198D02*
X156018796Y-112707341D01*
X156018796Y-112707341D02*
X155875939Y-112635912D01*
X155875939Y-112635912D02*
X155590225Y-112635912D01*
X155590225Y-112635912D02*
X155447367Y-112707341D01*
X156090225Y-113564484D02*
X155947367Y-113635912D01*
X155947367Y-113635912D02*
X155590225Y-113635912D01*
X155590225Y-113635912D02*
X155447367Y-113564484D01*
X155447367Y-113564484D02*
X155375939Y-113421626D01*
X155375939Y-113421626D02*
X155375939Y-113278769D01*
X155375939Y-113278769D02*
X155447367Y-113135912D01*
X155447367Y-113135912D02*
X155590225Y-113064484D01*
X155590225Y-113064484D02*
X155947367Y-113064484D01*
X155947367Y-113064484D02*
X156090225Y-112993055D01*
X156804510Y-113635912D02*
X156804510Y-112635912D01*
X156804510Y-112778769D02*
X156875939Y-112707341D01*
X156875939Y-112707341D02*
X157018796Y-112635912D01*
X157018796Y-112635912D02*
X157233082Y-112635912D01*
X157233082Y-112635912D02*
X157375939Y-112707341D01*
X157375939Y-112707341D02*
X157447368Y-112850198D01*
X157447368Y-112850198D02*
X157447368Y-113635912D01*
X157447368Y-112850198D02*
X157518796Y-112707341D01*
X157518796Y-112707341D02*
X157661653Y-112635912D01*
X157661653Y-112635912D02*
X157875939Y-112635912D01*
X157875939Y-112635912D02*
X158018796Y-112707341D01*
X158018796Y-112707341D02*
X158090225Y-112850198D01*
X158090225Y-112850198D02*
X158090225Y-113635912D01*
X158804510Y-112635912D02*
X158804510Y-114135912D01*
X158804510Y-112707341D02*
X158947368Y-112635912D01*
X158947368Y-112635912D02*
X159233082Y-112635912D01*
X159233082Y-112635912D02*
X159375939Y-112707341D01*
X159375939Y-112707341D02*
X159447368Y-112778769D01*
X159447368Y-112778769D02*
X159518796Y-112921626D01*
X159518796Y-112921626D02*
X159518796Y-113350198D01*
X159518796Y-113350198D02*
X159447368Y-113493055D01*
X159447368Y-113493055D02*
X159375939Y-113564484D01*
X159375939Y-113564484D02*
X159233082Y-113635912D01*
X159233082Y-113635912D02*
X158947368Y-113635912D01*
X158947368Y-113635912D02*
X158804510Y-113564484D01*
X148233082Y-115979400D02*
X148447368Y-116050828D01*
X148447368Y-116050828D02*
X148804510Y-116050828D01*
X148804510Y-116050828D02*
X148947368Y-115979400D01*
X148947368Y-115979400D02*
X149018796Y-115907971D01*
X149018796Y-115907971D02*
X149090225Y-115765114D01*
X149090225Y-115765114D02*
X149090225Y-115622257D01*
X149090225Y-115622257D02*
X149018796Y-115479400D01*
X149018796Y-115479400D02*
X148947368Y-115407971D01*
X148947368Y-115407971D02*
X148804510Y-115336542D01*
X148804510Y-115336542D02*
X148518796Y-115265114D01*
X148518796Y-115265114D02*
X148375939Y-115193685D01*
X148375939Y-115193685D02*
X148304510Y-115122257D01*
X148304510Y-115122257D02*
X148233082Y-114979400D01*
X148233082Y-114979400D02*
X148233082Y-114836542D01*
X148233082Y-114836542D02*
X148304510Y-114693685D01*
X148304510Y-114693685D02*
X148375939Y-114622257D01*
X148375939Y-114622257D02*
X148518796Y-114550828D01*
X148518796Y-114550828D02*
X148875939Y-114550828D01*
X148875939Y-114550828D02*
X149090225Y-114622257D01*
X149733081Y-115050828D02*
X149733081Y-116550828D01*
X149733081Y-115122257D02*
X149875939Y-115050828D01*
X149875939Y-115050828D02*
X150161653Y-115050828D01*
X150161653Y-115050828D02*
X150304510Y-115122257D01*
X150304510Y-115122257D02*
X150375939Y-115193685D01*
X150375939Y-115193685D02*
X150447367Y-115336542D01*
X150447367Y-115336542D02*
X150447367Y-115765114D01*
X150447367Y-115765114D02*
X150375939Y-115907971D01*
X150375939Y-115907971D02*
X150304510Y-115979400D01*
X150304510Y-115979400D02*
X150161653Y-116050828D01*
X150161653Y-116050828D02*
X149875939Y-116050828D01*
X149875939Y-116050828D02*
X149733081Y-115979400D01*
X151090224Y-116050828D02*
X151090224Y-115050828D01*
X151090224Y-115336542D02*
X151161653Y-115193685D01*
X151161653Y-115193685D02*
X151233082Y-115122257D01*
X151233082Y-115122257D02*
X151375939Y-115050828D01*
X151375939Y-115050828D02*
X151518796Y-115050828D01*
X152018795Y-116050828D02*
X152018795Y-115050828D01*
X152018795Y-114550828D02*
X151947367Y-114622257D01*
X151947367Y-114622257D02*
X152018795Y-114693685D01*
X152018795Y-114693685D02*
X152090224Y-114622257D01*
X152090224Y-114622257D02*
X152018795Y-114550828D01*
X152018795Y-114550828D02*
X152018795Y-114693685D01*
X152733081Y-115050828D02*
X152733081Y-116050828D01*
X152733081Y-115193685D02*
X152804510Y-115122257D01*
X152804510Y-115122257D02*
X152947367Y-115050828D01*
X152947367Y-115050828D02*
X153161653Y-115050828D01*
X153161653Y-115050828D02*
X153304510Y-115122257D01*
X153304510Y-115122257D02*
X153375939Y-115265114D01*
X153375939Y-115265114D02*
X153375939Y-116050828D01*
X154733082Y-115050828D02*
X154733082Y-116265114D01*
X154733082Y-116265114D02*
X154661653Y-116407971D01*
X154661653Y-116407971D02*
X154590224Y-116479400D01*
X154590224Y-116479400D02*
X154447367Y-116550828D01*
X154447367Y-116550828D02*
X154233082Y-116550828D01*
X154233082Y-116550828D02*
X154090224Y-116479400D01*
X154733082Y-115979400D02*
X154590224Y-116050828D01*
X154590224Y-116050828D02*
X154304510Y-116050828D01*
X154304510Y-116050828D02*
X154161653Y-115979400D01*
X154161653Y-115979400D02*
X154090224Y-115907971D01*
X154090224Y-115907971D02*
X154018796Y-115765114D01*
X154018796Y-115765114D02*
X154018796Y-115336542D01*
X154018796Y-115336542D02*
X154090224Y-115193685D01*
X154090224Y-115193685D02*
X154161653Y-115122257D01*
X154161653Y-115122257D02*
X154304510Y-115050828D01*
X154304510Y-115050828D02*
X154590224Y-115050828D01*
X154590224Y-115050828D02*
X154733082Y-115122257D01*
X156518796Y-114693685D02*
X156590224Y-114622257D01*
X156590224Y-114622257D02*
X156733082Y-114550828D01*
X156733082Y-114550828D02*
X157090224Y-114550828D01*
X157090224Y-114550828D02*
X157233082Y-114622257D01*
X157233082Y-114622257D02*
X157304510Y-114693685D01*
X157304510Y-114693685D02*
X157375939Y-114836542D01*
X157375939Y-114836542D02*
X157375939Y-114979400D01*
X157375939Y-114979400D02*
X157304510Y-115193685D01*
X157304510Y-115193685D02*
X156447367Y-116050828D01*
X156447367Y-116050828D02*
X157375939Y-116050828D01*
X158304510Y-114550828D02*
X158447367Y-114550828D01*
X158447367Y-114550828D02*
X158590224Y-114622257D01*
X158590224Y-114622257D02*
X158661653Y-114693685D01*
X158661653Y-114693685D02*
X158733081Y-114836542D01*
X158733081Y-114836542D02*
X158804510Y-115122257D01*
X158804510Y-115122257D02*
X158804510Y-115479400D01*
X158804510Y-115479400D02*
X158733081Y-115765114D01*
X158733081Y-115765114D02*
X158661653Y-115907971D01*
X158661653Y-115907971D02*
X158590224Y-115979400D01*
X158590224Y-115979400D02*
X158447367Y-116050828D01*
X158447367Y-116050828D02*
X158304510Y-116050828D01*
X158304510Y-116050828D02*
X158161653Y-115979400D01*
X158161653Y-115979400D02*
X158090224Y-115907971D01*
X158090224Y-115907971D02*
X158018795Y-115765114D01*
X158018795Y-115765114D02*
X157947367Y-115479400D01*
X157947367Y-115479400D02*
X157947367Y-115122257D01*
X157947367Y-115122257D02*
X158018795Y-114836542D01*
X158018795Y-114836542D02*
X158090224Y-114693685D01*
X158090224Y-114693685D02*
X158161653Y-114622257D01*
X158161653Y-114622257D02*
X158304510Y-114550828D01*
X159375938Y-114693685D02*
X159447366Y-114622257D01*
X159447366Y-114622257D02*
X159590224Y-114550828D01*
X159590224Y-114550828D02*
X159947366Y-114550828D01*
X159947366Y-114550828D02*
X160090224Y-114622257D01*
X160090224Y-114622257D02*
X160161652Y-114693685D01*
X160161652Y-114693685D02*
X160233081Y-114836542D01*
X160233081Y-114836542D02*
X160233081Y-114979400D01*
X160233081Y-114979400D02*
X160161652Y-115193685D01*
X160161652Y-115193685D02*
X159304509Y-116050828D01*
X159304509Y-116050828D02*
X160233081Y-116050828D01*
X161590223Y-114550828D02*
X160875937Y-114550828D01*
X160875937Y-114550828D02*
X160804509Y-115265114D01*
X160804509Y-115265114D02*
X160875937Y-115193685D01*
X160875937Y-115193685D02*
X161018795Y-115122257D01*
X161018795Y-115122257D02*
X161375937Y-115122257D01*
X161375937Y-115122257D02*
X161518795Y-115193685D01*
X161518795Y-115193685D02*
X161590223Y-115265114D01*
X161590223Y-115265114D02*
X161661652Y-115407971D01*
X161661652Y-115407971D02*
X161661652Y-115765114D01*
X161661652Y-115765114D02*
X161590223Y-115907971D01*
X161590223Y-115907971D02*
X161518795Y-115979400D01*
X161518795Y-115979400D02*
X161375937Y-116050828D01*
X161375937Y-116050828D02*
X161018795Y-116050828D01*
X161018795Y-116050828D02*
X160875937Y-115979400D01*
X160875937Y-115979400D02*
X160804509Y-115907971D01*
D10*
X125843270Y-43071461D02*
X125843270Y-42309461D01*
X125843270Y-42309461D02*
X126024699Y-42309461D01*
X126024699Y-42309461D02*
X126133556Y-42345747D01*
X126133556Y-42345747D02*
X126206127Y-42418318D01*
X126206127Y-42418318D02*
X126242413Y-42490890D01*
X126242413Y-42490890D02*
X126278699Y-42636033D01*
X126278699Y-42636033D02*
X126278699Y-42744890D01*
X126278699Y-42744890D02*
X126242413Y-42890033D01*
X126242413Y-42890033D02*
X126206127Y-42962604D01*
X126206127Y-42962604D02*
X126133556Y-43035176D01*
X126133556Y-43035176D02*
X126024699Y-43071461D01*
X126024699Y-43071461D02*
X125843270Y-43071461D01*
X126568984Y-42853747D02*
X126931842Y-42853747D01*
X126496413Y-43071461D02*
X126750413Y-42309461D01*
X126750413Y-42309461D02*
X127004413Y-43071461D01*
X127693842Y-42998890D02*
X127657556Y-43035176D01*
X127657556Y-43035176D02*
X127548699Y-43071461D01*
X127548699Y-43071461D02*
X127476127Y-43071461D01*
X127476127Y-43071461D02*
X127367270Y-43035176D01*
X127367270Y-43035176D02*
X127294699Y-42962604D01*
X127294699Y-42962604D02*
X127258413Y-42890033D01*
X127258413Y-42890033D02*
X127222127Y-42744890D01*
X127222127Y-42744890D02*
X127222127Y-42636033D01*
X127222127Y-42636033D02*
X127258413Y-42490890D01*
X127258413Y-42490890D02*
X127294699Y-42418318D01*
X127294699Y-42418318D02*
X127367270Y-42345747D01*
X127367270Y-42345747D02*
X127476127Y-42309461D01*
X127476127Y-42309461D02*
X127548699Y-42309461D01*
X127548699Y-42309461D02*
X127657556Y-42345747D01*
X127657556Y-42345747D02*
X127693842Y-42382033D01*
X128165556Y-42309461D02*
X128310699Y-42309461D01*
X128310699Y-42309461D02*
X128383270Y-42345747D01*
X128383270Y-42345747D02*
X128455842Y-42418318D01*
X128455842Y-42418318D02*
X128492127Y-42563461D01*
X128492127Y-42563461D02*
X128492127Y-42817461D01*
X128492127Y-42817461D02*
X128455842Y-42962604D01*
X128455842Y-42962604D02*
X128383270Y-43035176D01*
X128383270Y-43035176D02*
X128310699Y-43071461D01*
X128310699Y-43071461D02*
X128165556Y-43071461D01*
X128165556Y-43071461D02*
X128092985Y-43035176D01*
X128092985Y-43035176D02*
X128020413Y-42962604D01*
X128020413Y-42962604D02*
X127984127Y-42817461D01*
X127984127Y-42817461D02*
X127984127Y-42563461D01*
X127984127Y-42563461D02*
X128020413Y-42418318D01*
X128020413Y-42418318D02*
X128092985Y-42345747D01*
X128092985Y-42345747D02*
X128165556Y-42309461D01*
X128818699Y-42309461D02*
X128818699Y-42926318D01*
X128818699Y-42926318D02*
X128854985Y-42998890D01*
X128854985Y-42998890D02*
X128891271Y-43035176D01*
X128891271Y-43035176D02*
X128963842Y-43071461D01*
X128963842Y-43071461D02*
X129108985Y-43071461D01*
X129108985Y-43071461D02*
X129181556Y-43035176D01*
X129181556Y-43035176D02*
X129217842Y-42998890D01*
X129217842Y-42998890D02*
X129254128Y-42926318D01*
X129254128Y-42926318D02*
X129254128Y-42309461D01*
X129508128Y-42309461D02*
X129943557Y-42309461D01*
X129725842Y-43071461D02*
X129725842Y-42309461D01*
X127004413Y-45484461D02*
X127439842Y-45484461D01*
X127222127Y-46246461D02*
X127222127Y-45484461D01*
X127693841Y-45847318D02*
X127947841Y-45847318D01*
X128056698Y-46246461D02*
X127693841Y-46246461D01*
X127693841Y-46246461D02*
X127693841Y-45484461D01*
X127693841Y-45484461D02*
X128056698Y-45484461D01*
X128310699Y-46246461D02*
X128709842Y-45738461D01*
X128310699Y-45738461D02*
X128709842Y-46246461D01*
X129326699Y-46246461D02*
X129326699Y-45847318D01*
X129326699Y-45847318D02*
X129290413Y-45774747D01*
X129290413Y-45774747D02*
X129217841Y-45738461D01*
X129217841Y-45738461D02*
X129072699Y-45738461D01*
X129072699Y-45738461D02*
X129000127Y-45774747D01*
X129326699Y-46210176D02*
X129254127Y-46246461D01*
X129254127Y-46246461D02*
X129072699Y-46246461D01*
X129072699Y-46246461D02*
X129000127Y-46210176D01*
X129000127Y-46210176D02*
X128963841Y-46137604D01*
X128963841Y-46137604D02*
X128963841Y-46065033D01*
X128963841Y-46065033D02*
X129000127Y-45992461D01*
X129000127Y-45992461D02*
X129072699Y-45956176D01*
X129072699Y-45956176D02*
X129254127Y-45956176D01*
X129254127Y-45956176D02*
X129326699Y-45919890D01*
X129653270Y-46210176D02*
X129762128Y-46246461D01*
X129762128Y-46246461D02*
X129943556Y-46246461D01*
X129943556Y-46246461D02*
X130016128Y-46210176D01*
X130016128Y-46210176D02*
X130052413Y-46173890D01*
X130052413Y-46173890D02*
X130088699Y-46101318D01*
X130088699Y-46101318D02*
X130088699Y-46028747D01*
X130088699Y-46028747D02*
X130052413Y-45956176D01*
X130052413Y-45956176D02*
X130016128Y-45919890D01*
X130016128Y-45919890D02*
X129943556Y-45883604D01*
X129943556Y-45883604D02*
X129798413Y-45847318D01*
X129798413Y-45847318D02*
X129725842Y-45811033D01*
X129725842Y-45811033D02*
X129689556Y-45774747D01*
X129689556Y-45774747D02*
X129653270Y-45702176D01*
X129653270Y-45702176D02*
X129653270Y-45629604D01*
X129653270Y-45629604D02*
X129689556Y-45557033D01*
X129689556Y-45557033D02*
X129725842Y-45520747D01*
X129725842Y-45520747D02*
X129798413Y-45484461D01*
X129798413Y-45484461D02*
X129979842Y-45484461D01*
X129979842Y-45484461D02*
X130088699Y-45520747D01*
D12*
X140166666Y-40349819D02*
X140166666Y-41064104D01*
X140166666Y-41064104D02*
X140119047Y-41206961D01*
X140119047Y-41206961D02*
X140023809Y-41302200D01*
X140023809Y-41302200D02*
X139880952Y-41349819D01*
X139880952Y-41349819D02*
X139785714Y-41349819D01*
X140642857Y-41349819D02*
X140642857Y-40349819D01*
X140642857Y-40349819D02*
X141023809Y-40349819D01*
X141023809Y-40349819D02*
X141119047Y-40397438D01*
X141119047Y-40397438D02*
X141166666Y-40445057D01*
X141166666Y-40445057D02*
X141214285Y-40540295D01*
X141214285Y-40540295D02*
X141214285Y-40683152D01*
X141214285Y-40683152D02*
X141166666Y-40778390D01*
X141166666Y-40778390D02*
X141119047Y-40826009D01*
X141119047Y-40826009D02*
X141023809Y-40873628D01*
X141023809Y-40873628D02*
X140642857Y-40873628D01*
X142071428Y-40683152D02*
X142071428Y-41349819D01*
X141833333Y-40302200D02*
X141595238Y-41016485D01*
X141595238Y-41016485D02*
X142214285Y-41016485D01*
X139166667Y-50804104D02*
X139642857Y-50804104D01*
X139071429Y-51089819D02*
X139404762Y-50089819D01*
X139404762Y-50089819D02*
X139738095Y-51089819D01*
X140500000Y-50423152D02*
X140500000Y-51089819D01*
X140071429Y-50423152D02*
X140071429Y-50946961D01*
X140071429Y-50946961D02*
X140119048Y-51042200D01*
X140119048Y-51042200D02*
X140214286Y-51089819D01*
X140214286Y-51089819D02*
X140357143Y-51089819D01*
X140357143Y-51089819D02*
X140452381Y-51042200D01*
X140452381Y-51042200D02*
X140500000Y-50994580D01*
X141404762Y-51089819D02*
X141404762Y-50089819D01*
X141404762Y-51042200D02*
X141309524Y-51089819D01*
X141309524Y-51089819D02*
X141119048Y-51089819D01*
X141119048Y-51089819D02*
X141023810Y-51042200D01*
X141023810Y-51042200D02*
X140976191Y-50994580D01*
X140976191Y-50994580D02*
X140928572Y-50899342D01*
X140928572Y-50899342D02*
X140928572Y-50613628D01*
X140928572Y-50613628D02*
X140976191Y-50518390D01*
X140976191Y-50518390D02*
X141023810Y-50470771D01*
X141023810Y-50470771D02*
X141119048Y-50423152D01*
X141119048Y-50423152D02*
X141309524Y-50423152D01*
X141309524Y-50423152D02*
X141404762Y-50470771D01*
X141880953Y-51089819D02*
X141880953Y-50423152D01*
X141880953Y-50089819D02*
X141833334Y-50137438D01*
X141833334Y-50137438D02*
X141880953Y-50185057D01*
X141880953Y-50185057D02*
X141928572Y-50137438D01*
X141928572Y-50137438D02*
X141880953Y-50089819D01*
X141880953Y-50089819D02*
X141880953Y-50185057D01*
X142500000Y-51089819D02*
X142404762Y-51042200D01*
X142404762Y-51042200D02*
X142357143Y-50994580D01*
X142357143Y-50994580D02*
X142309524Y-50899342D01*
X142309524Y-50899342D02*
X142309524Y-50613628D01*
X142309524Y-50613628D02*
X142357143Y-50518390D01*
X142357143Y-50518390D02*
X142404762Y-50470771D01*
X142404762Y-50470771D02*
X142500000Y-50423152D01*
X142500000Y-50423152D02*
X142642857Y-50423152D01*
X142642857Y-50423152D02*
X142738095Y-50470771D01*
X142738095Y-50470771D02*
X142785714Y-50518390D01*
X142785714Y-50518390D02*
X142833333Y-50613628D01*
X142833333Y-50613628D02*
X142833333Y-50899342D01*
X142833333Y-50899342D02*
X142785714Y-50994580D01*
X142785714Y-50994580D02*
X142738095Y-51042200D01*
X142738095Y-51042200D02*
X142642857Y-51089819D01*
X142642857Y-51089819D02*
X142500000Y-51089819D01*
D13*
X61771666Y-51329919D02*
X61771666Y-52044204D01*
X61771666Y-52044204D02*
X61724047Y-52187061D01*
X61724047Y-52187061D02*
X61628809Y-52282300D01*
X61628809Y-52282300D02*
X61485952Y-52329919D01*
X61485952Y-52329919D02*
X61390714Y-52329919D01*
X62724047Y-51329919D02*
X62247857Y-51329919D01*
X62247857Y-51329919D02*
X62200238Y-51806109D01*
X62200238Y-51806109D02*
X62247857Y-51758490D01*
X62247857Y-51758490D02*
X62343095Y-51710871D01*
X62343095Y-51710871D02*
X62581190Y-51710871D01*
X62581190Y-51710871D02*
X62676428Y-51758490D01*
X62676428Y-51758490D02*
X62724047Y-51806109D01*
X62724047Y-51806109D02*
X62771666Y-51901347D01*
X62771666Y-51901347D02*
X62771666Y-52139442D01*
X62771666Y-52139442D02*
X62724047Y-52234680D01*
X62724047Y-52234680D02*
X62676428Y-52282300D01*
X62676428Y-52282300D02*
X62581190Y-52329919D01*
X62581190Y-52329919D02*
X62343095Y-52329919D01*
X62343095Y-52329919D02*
X62247857Y-52282300D01*
X62247857Y-52282300D02*
X62200238Y-52234680D01*
D12*
X59017618Y-65662319D02*
X59017618Y-66376604D01*
X59017618Y-66376604D02*
X58969999Y-66519461D01*
X58969999Y-66519461D02*
X58874761Y-66614700D01*
X58874761Y-66614700D02*
X58731904Y-66662319D01*
X58731904Y-66662319D02*
X58636666Y-66662319D01*
X59636666Y-66662319D02*
X59541428Y-66614700D01*
X59541428Y-66614700D02*
X59493809Y-66567080D01*
X59493809Y-66567080D02*
X59446190Y-66471842D01*
X59446190Y-66471842D02*
X59446190Y-66186128D01*
X59446190Y-66186128D02*
X59493809Y-66090890D01*
X59493809Y-66090890D02*
X59541428Y-66043271D01*
X59541428Y-66043271D02*
X59636666Y-65995652D01*
X59636666Y-65995652D02*
X59779523Y-65995652D01*
X59779523Y-65995652D02*
X59874761Y-66043271D01*
X59874761Y-66043271D02*
X59922380Y-66090890D01*
X59922380Y-66090890D02*
X59969999Y-66186128D01*
X59969999Y-66186128D02*
X59969999Y-66471842D01*
X59969999Y-66471842D02*
X59922380Y-66567080D01*
X59922380Y-66567080D02*
X59874761Y-66614700D01*
X59874761Y-66614700D02*
X59779523Y-66662319D01*
X59779523Y-66662319D02*
X59636666Y-66662319D01*
X60303333Y-65995652D02*
X60541428Y-66662319D01*
X60779523Y-65995652D02*
X60541428Y-66662319D01*
X60541428Y-66662319D02*
X60446190Y-66900414D01*
X60446190Y-66900414D02*
X60398571Y-66948033D01*
X60398571Y-66948033D02*
X60303333Y-66995652D01*
X61112857Y-66614700D02*
X61208095Y-66662319D01*
X61208095Y-66662319D02*
X61398571Y-66662319D01*
X61398571Y-66662319D02*
X61493809Y-66614700D01*
X61493809Y-66614700D02*
X61541428Y-66519461D01*
X61541428Y-66519461D02*
X61541428Y-66471842D01*
X61541428Y-66471842D02*
X61493809Y-66376604D01*
X61493809Y-66376604D02*
X61398571Y-66328985D01*
X61398571Y-66328985D02*
X61255714Y-66328985D01*
X61255714Y-66328985D02*
X61160476Y-66281366D01*
X61160476Y-66281366D02*
X61112857Y-66186128D01*
X61112857Y-66186128D02*
X61112857Y-66138509D01*
X61112857Y-66138509D02*
X61160476Y-66043271D01*
X61160476Y-66043271D02*
X61255714Y-65995652D01*
X61255714Y-65995652D02*
X61398571Y-65995652D01*
X61398571Y-65995652D02*
X61493809Y-66043271D01*
X61827143Y-65995652D02*
X62208095Y-65995652D01*
X61970000Y-65662319D02*
X61970000Y-66519461D01*
X61970000Y-66519461D02*
X62017619Y-66614700D01*
X62017619Y-66614700D02*
X62112857Y-66662319D01*
X62112857Y-66662319D02*
X62208095Y-66662319D01*
X62541429Y-66662319D02*
X62541429Y-65995652D01*
X62541429Y-65662319D02*
X62493810Y-65709938D01*
X62493810Y-65709938D02*
X62541429Y-65757557D01*
X62541429Y-65757557D02*
X62589048Y-65709938D01*
X62589048Y-65709938D02*
X62541429Y-65662319D01*
X62541429Y-65662319D02*
X62541429Y-65757557D01*
X63446190Y-66614700D02*
X63350952Y-66662319D01*
X63350952Y-66662319D02*
X63160476Y-66662319D01*
X63160476Y-66662319D02*
X63065238Y-66614700D01*
X63065238Y-66614700D02*
X63017619Y-66567080D01*
X63017619Y-66567080D02*
X62970000Y-66471842D01*
X62970000Y-66471842D02*
X62970000Y-66186128D01*
X62970000Y-66186128D02*
X63017619Y-66090890D01*
X63017619Y-66090890D02*
X63065238Y-66043271D01*
X63065238Y-66043271D02*
X63160476Y-65995652D01*
X63160476Y-65995652D02*
X63350952Y-65995652D01*
X63350952Y-65995652D02*
X63446190Y-66043271D01*
X63874762Y-66662319D02*
X63874762Y-65662319D01*
X63970000Y-66281366D02*
X64255714Y-66662319D01*
X64255714Y-65995652D02*
X63874762Y-66376604D01*
X59991667Y-95752200D02*
X60134524Y-95799819D01*
X60134524Y-95799819D02*
X60372619Y-95799819D01*
X60372619Y-95799819D02*
X60467857Y-95752200D01*
X60467857Y-95752200D02*
X60515476Y-95704580D01*
X60515476Y-95704580D02*
X60563095Y-95609342D01*
X60563095Y-95609342D02*
X60563095Y-95514104D01*
X60563095Y-95514104D02*
X60515476Y-95418866D01*
X60515476Y-95418866D02*
X60467857Y-95371247D01*
X60467857Y-95371247D02*
X60372619Y-95323628D01*
X60372619Y-95323628D02*
X60182143Y-95276009D01*
X60182143Y-95276009D02*
X60086905Y-95228390D01*
X60086905Y-95228390D02*
X60039286Y-95180771D01*
X60039286Y-95180771D02*
X59991667Y-95085533D01*
X59991667Y-95085533D02*
X59991667Y-94990295D01*
X59991667Y-94990295D02*
X60039286Y-94895057D01*
X60039286Y-94895057D02*
X60086905Y-94847438D01*
X60086905Y-94847438D02*
X60182143Y-94799819D01*
X60182143Y-94799819D02*
X60420238Y-94799819D01*
X60420238Y-94799819D02*
X60563095Y-94847438D01*
X60896429Y-94799819D02*
X61134524Y-95799819D01*
X61134524Y-95799819D02*
X61325000Y-95085533D01*
X61325000Y-95085533D02*
X61515476Y-95799819D01*
X61515476Y-95799819D02*
X61753572Y-94799819D01*
X62086905Y-94895057D02*
X62134524Y-94847438D01*
X62134524Y-94847438D02*
X62229762Y-94799819D01*
X62229762Y-94799819D02*
X62467857Y-94799819D01*
X62467857Y-94799819D02*
X62563095Y-94847438D01*
X62563095Y-94847438D02*
X62610714Y-94895057D01*
X62610714Y-94895057D02*
X62658333Y-94990295D01*
X62658333Y-94990295D02*
X62658333Y-95085533D01*
X62658333Y-95085533D02*
X62610714Y-95228390D01*
X62610714Y-95228390D02*
X62039286Y-95799819D01*
X62039286Y-95799819D02*
X62658333Y-95799819D01*
X60797618Y-104404819D02*
X60321428Y-104404819D01*
X60321428Y-104404819D02*
X60321428Y-103404819D01*
X61130952Y-103881009D02*
X61464285Y-103881009D01*
X61607142Y-104404819D02*
X61130952Y-104404819D01*
X61130952Y-104404819D02*
X61130952Y-103404819D01*
X61130952Y-103404819D02*
X61607142Y-103404819D01*
X62369047Y-103881009D02*
X62035714Y-103881009D01*
X62035714Y-104404819D02*
X62035714Y-103404819D01*
X62035714Y-103404819D02*
X62511904Y-103404819D01*
X62750000Y-103404819D02*
X63321428Y-103404819D01*
X63035714Y-104404819D02*
X63035714Y-103404819D01*
X70416667Y-88407200D02*
X70559524Y-88454819D01*
X70559524Y-88454819D02*
X70797619Y-88454819D01*
X70797619Y-88454819D02*
X70892857Y-88407200D01*
X70892857Y-88407200D02*
X70940476Y-88359580D01*
X70940476Y-88359580D02*
X70988095Y-88264342D01*
X70988095Y-88264342D02*
X70988095Y-88169104D01*
X70988095Y-88169104D02*
X70940476Y-88073866D01*
X70940476Y-88073866D02*
X70892857Y-88026247D01*
X70892857Y-88026247D02*
X70797619Y-87978628D01*
X70797619Y-87978628D02*
X70607143Y-87931009D01*
X70607143Y-87931009D02*
X70511905Y-87883390D01*
X70511905Y-87883390D02*
X70464286Y-87835771D01*
X70464286Y-87835771D02*
X70416667Y-87740533D01*
X70416667Y-87740533D02*
X70416667Y-87645295D01*
X70416667Y-87645295D02*
X70464286Y-87550057D01*
X70464286Y-87550057D02*
X70511905Y-87502438D01*
X70511905Y-87502438D02*
X70607143Y-87454819D01*
X70607143Y-87454819D02*
X70845238Y-87454819D01*
X70845238Y-87454819D02*
X70988095Y-87502438D01*
X71321429Y-87454819D02*
X71559524Y-88454819D01*
X71559524Y-88454819D02*
X71750000Y-87740533D01*
X71750000Y-87740533D02*
X71940476Y-88454819D01*
X71940476Y-88454819D02*
X72178572Y-87454819D01*
X73083333Y-88454819D02*
X72511905Y-88454819D01*
X72797619Y-88454819D02*
X72797619Y-87454819D01*
X72797619Y-87454819D02*
X72702381Y-87597676D01*
X72702381Y-87597676D02*
X72607143Y-87692914D01*
X72607143Y-87692914D02*
X72511905Y-87740533D01*
X71464286Y-96154819D02*
X71464286Y-96964342D01*
X71464286Y-96964342D02*
X71511905Y-97059580D01*
X71511905Y-97059580D02*
X71559524Y-97107200D01*
X71559524Y-97107200D02*
X71654762Y-97154819D01*
X71654762Y-97154819D02*
X71845238Y-97154819D01*
X71845238Y-97154819D02*
X71940476Y-97107200D01*
X71940476Y-97107200D02*
X71988095Y-97059580D01*
X71988095Y-97059580D02*
X72035714Y-96964342D01*
X72035714Y-96964342D02*
X72035714Y-96154819D01*
X72511905Y-97154819D02*
X72511905Y-96154819D01*
X72511905Y-96154819D02*
X72892857Y-96154819D01*
X72892857Y-96154819D02*
X72988095Y-96202438D01*
X72988095Y-96202438D02*
X73035714Y-96250057D01*
X73035714Y-96250057D02*
X73083333Y-96345295D01*
X73083333Y-96345295D02*
X73083333Y-96488152D01*
X73083333Y-96488152D02*
X73035714Y-96583390D01*
X73035714Y-96583390D02*
X72988095Y-96631009D01*
X72988095Y-96631009D02*
X72892857Y-96678628D01*
X72892857Y-96678628D02*
X72511905Y-96678628D01*
X86504761Y-114404819D02*
X86171428Y-113928628D01*
X85933333Y-114404819D02*
X85933333Y-113404819D01*
X85933333Y-113404819D02*
X86314285Y-113404819D01*
X86314285Y-113404819D02*
X86409523Y-113452438D01*
X86409523Y-113452438D02*
X86457142Y-113500057D01*
X86457142Y-113500057D02*
X86504761Y-113595295D01*
X86504761Y-113595295D02*
X86504761Y-113738152D01*
X86504761Y-113738152D02*
X86457142Y-113833390D01*
X86457142Y-113833390D02*
X86409523Y-113881009D01*
X86409523Y-113881009D02*
X86314285Y-113928628D01*
X86314285Y-113928628D02*
X85933333Y-113928628D01*
X86790476Y-113404819D02*
X87123809Y-114404819D01*
X87123809Y-114404819D02*
X87457142Y-113404819D01*
X88314285Y-114404819D02*
X87742857Y-114404819D01*
X88028571Y-114404819D02*
X88028571Y-113404819D01*
X88028571Y-113404819D02*
X87933333Y-113547676D01*
X87933333Y-113547676D02*
X87838095Y-113642914D01*
X87838095Y-113642914D02*
X87742857Y-113690533D01*
X133916667Y-69907200D02*
X134059524Y-69954819D01*
X134059524Y-69954819D02*
X134297619Y-69954819D01*
X134297619Y-69954819D02*
X134392857Y-69907200D01*
X134392857Y-69907200D02*
X134440476Y-69859580D01*
X134440476Y-69859580D02*
X134488095Y-69764342D01*
X134488095Y-69764342D02*
X134488095Y-69669104D01*
X134488095Y-69669104D02*
X134440476Y-69573866D01*
X134440476Y-69573866D02*
X134392857Y-69526247D01*
X134392857Y-69526247D02*
X134297619Y-69478628D01*
X134297619Y-69478628D02*
X134107143Y-69431009D01*
X134107143Y-69431009D02*
X134011905Y-69383390D01*
X134011905Y-69383390D02*
X133964286Y-69335771D01*
X133964286Y-69335771D02*
X133916667Y-69240533D01*
X133916667Y-69240533D02*
X133916667Y-69145295D01*
X133916667Y-69145295D02*
X133964286Y-69050057D01*
X133964286Y-69050057D02*
X134011905Y-69002438D01*
X134011905Y-69002438D02*
X134107143Y-68954819D01*
X134107143Y-68954819D02*
X134345238Y-68954819D01*
X134345238Y-68954819D02*
X134488095Y-69002438D01*
X134821429Y-68954819D02*
X135059524Y-69954819D01*
X135059524Y-69954819D02*
X135250000Y-69240533D01*
X135250000Y-69240533D02*
X135440476Y-69954819D01*
X135440476Y-69954819D02*
X135678572Y-68954819D01*
X136488095Y-68954819D02*
X136297619Y-68954819D01*
X136297619Y-68954819D02*
X136202381Y-69002438D01*
X136202381Y-69002438D02*
X136154762Y-69050057D01*
X136154762Y-69050057D02*
X136059524Y-69192914D01*
X136059524Y-69192914D02*
X136011905Y-69383390D01*
X136011905Y-69383390D02*
X136011905Y-69764342D01*
X136011905Y-69764342D02*
X136059524Y-69859580D01*
X136059524Y-69859580D02*
X136107143Y-69907200D01*
X136107143Y-69907200D02*
X136202381Y-69954819D01*
X136202381Y-69954819D02*
X136392857Y-69954819D01*
X136392857Y-69954819D02*
X136488095Y-69907200D01*
X136488095Y-69907200D02*
X136535714Y-69859580D01*
X136535714Y-69859580D02*
X136583333Y-69764342D01*
X136583333Y-69764342D02*
X136583333Y-69526247D01*
X136583333Y-69526247D02*
X136535714Y-69431009D01*
X136535714Y-69431009D02*
X136488095Y-69383390D01*
X136488095Y-69383390D02*
X136392857Y-69335771D01*
X136392857Y-69335771D02*
X136202381Y-69335771D01*
X136202381Y-69335771D02*
X136107143Y-69383390D01*
X136107143Y-69383390D02*
X136059524Y-69431009D01*
X136059524Y-69431009D02*
X136011905Y-69526247D01*
X135750000Y-78178628D02*
X135750000Y-78654819D01*
X135416667Y-77654819D02*
X135750000Y-78178628D01*
X135750000Y-78178628D02*
X136083333Y-77654819D01*
X155416667Y-69907200D02*
X155559524Y-69954819D01*
X155559524Y-69954819D02*
X155797619Y-69954819D01*
X155797619Y-69954819D02*
X155892857Y-69907200D01*
X155892857Y-69907200D02*
X155940476Y-69859580D01*
X155940476Y-69859580D02*
X155988095Y-69764342D01*
X155988095Y-69764342D02*
X155988095Y-69669104D01*
X155988095Y-69669104D02*
X155940476Y-69573866D01*
X155940476Y-69573866D02*
X155892857Y-69526247D01*
X155892857Y-69526247D02*
X155797619Y-69478628D01*
X155797619Y-69478628D02*
X155607143Y-69431009D01*
X155607143Y-69431009D02*
X155511905Y-69383390D01*
X155511905Y-69383390D02*
X155464286Y-69335771D01*
X155464286Y-69335771D02*
X155416667Y-69240533D01*
X155416667Y-69240533D02*
X155416667Y-69145295D01*
X155416667Y-69145295D02*
X155464286Y-69050057D01*
X155464286Y-69050057D02*
X155511905Y-69002438D01*
X155511905Y-69002438D02*
X155607143Y-68954819D01*
X155607143Y-68954819D02*
X155845238Y-68954819D01*
X155845238Y-68954819D02*
X155988095Y-69002438D01*
X156321429Y-68954819D02*
X156559524Y-69954819D01*
X156559524Y-69954819D02*
X156750000Y-69240533D01*
X156750000Y-69240533D02*
X156940476Y-69954819D01*
X156940476Y-69954819D02*
X157178572Y-68954819D01*
X157464286Y-68954819D02*
X158130952Y-68954819D01*
X158130952Y-68954819D02*
X157702381Y-69954819D01*
X157011905Y-78369104D02*
X157488095Y-78369104D01*
X156916667Y-78654819D02*
X157250000Y-77654819D01*
X157250000Y-77654819D02*
X157583333Y-78654819D01*
X140241905Y-111494819D02*
X140241905Y-110494819D01*
X140241905Y-110494819D02*
X140480000Y-110494819D01*
X140480000Y-110494819D02*
X140622857Y-110542438D01*
X140622857Y-110542438D02*
X140718095Y-110637676D01*
X140718095Y-110637676D02*
X140765714Y-110732914D01*
X140765714Y-110732914D02*
X140813333Y-110923390D01*
X140813333Y-110923390D02*
X140813333Y-111066247D01*
X140813333Y-111066247D02*
X140765714Y-111256723D01*
X140765714Y-111256723D02*
X140718095Y-111351961D01*
X140718095Y-111351961D02*
X140622857Y-111447200D01*
X140622857Y-111447200D02*
X140480000Y-111494819D01*
X140480000Y-111494819D02*
X140241905Y-111494819D01*
X141670476Y-110828152D02*
X141670476Y-111494819D01*
X141432381Y-110447200D02*
X141194286Y-111161485D01*
X141194286Y-111161485D02*
X141813333Y-111161485D01*
X139479999Y-119414819D02*
X139003809Y-119414819D01*
X139003809Y-119414819D02*
X139003809Y-118414819D01*
X139813333Y-118891009D02*
X140146666Y-118891009D01*
X140289523Y-119414819D02*
X139813333Y-119414819D01*
X139813333Y-119414819D02*
X139813333Y-118414819D01*
X139813333Y-118414819D02*
X140289523Y-118414819D01*
X140718095Y-119414819D02*
X140718095Y-118414819D01*
X140718095Y-118414819D02*
X140956190Y-118414819D01*
X140956190Y-118414819D02*
X141099047Y-118462438D01*
X141099047Y-118462438D02*
X141194285Y-118557676D01*
X141194285Y-118557676D02*
X141241904Y-118652914D01*
X141241904Y-118652914D02*
X141289523Y-118843390D01*
X141289523Y-118843390D02*
X141289523Y-118986247D01*
X141289523Y-118986247D02*
X141241904Y-119176723D01*
X141241904Y-119176723D02*
X141194285Y-119271961D01*
X141194285Y-119271961D02*
X141099047Y-119367200D01*
X141099047Y-119367200D02*
X140956190Y-119414819D01*
X140956190Y-119414819D02*
X140718095Y-119414819D01*
X142908571Y-118748152D02*
X142908571Y-119414819D01*
X142670476Y-118367200D02*
X142432381Y-119081485D01*
X142432381Y-119081485D02*
X143051428Y-119081485D01*
X131466905Y-111494819D02*
X131466905Y-110494819D01*
X131466905Y-110494819D02*
X131705000Y-110494819D01*
X131705000Y-110494819D02*
X131847857Y-110542438D01*
X131847857Y-110542438D02*
X131943095Y-110637676D01*
X131943095Y-110637676D02*
X131990714Y-110732914D01*
X131990714Y-110732914D02*
X132038333Y-110923390D01*
X132038333Y-110923390D02*
X132038333Y-111066247D01*
X132038333Y-111066247D02*
X131990714Y-111256723D01*
X131990714Y-111256723D02*
X131943095Y-111351961D01*
X131943095Y-111351961D02*
X131847857Y-111447200D01*
X131847857Y-111447200D02*
X131705000Y-111494819D01*
X131705000Y-111494819D02*
X131466905Y-111494819D01*
X132371667Y-110494819D02*
X132990714Y-110494819D01*
X132990714Y-110494819D02*
X132657381Y-110875771D01*
X132657381Y-110875771D02*
X132800238Y-110875771D01*
X132800238Y-110875771D02*
X132895476Y-110923390D01*
X132895476Y-110923390D02*
X132943095Y-110971009D01*
X132943095Y-110971009D02*
X132990714Y-111066247D01*
X132990714Y-111066247D02*
X132990714Y-111304342D01*
X132990714Y-111304342D02*
X132943095Y-111399580D01*
X132943095Y-111399580D02*
X132895476Y-111447200D01*
X132895476Y-111447200D02*
X132800238Y-111494819D01*
X132800238Y-111494819D02*
X132514524Y-111494819D01*
X132514524Y-111494819D02*
X132419286Y-111447200D01*
X132419286Y-111447200D02*
X132371667Y-111399580D01*
X144666667Y-62907200D02*
X144809524Y-62954819D01*
X144809524Y-62954819D02*
X145047619Y-62954819D01*
X145047619Y-62954819D02*
X145142857Y-62907200D01*
X145142857Y-62907200D02*
X145190476Y-62859580D01*
X145190476Y-62859580D02*
X145238095Y-62764342D01*
X145238095Y-62764342D02*
X145238095Y-62669104D01*
X145238095Y-62669104D02*
X145190476Y-62573866D01*
X145190476Y-62573866D02*
X145142857Y-62526247D01*
X145142857Y-62526247D02*
X145047619Y-62478628D01*
X145047619Y-62478628D02*
X144857143Y-62431009D01*
X144857143Y-62431009D02*
X144761905Y-62383390D01*
X144761905Y-62383390D02*
X144714286Y-62335771D01*
X144714286Y-62335771D02*
X144666667Y-62240533D01*
X144666667Y-62240533D02*
X144666667Y-62145295D01*
X144666667Y-62145295D02*
X144714286Y-62050057D01*
X144714286Y-62050057D02*
X144761905Y-62002438D01*
X144761905Y-62002438D02*
X144857143Y-61954819D01*
X144857143Y-61954819D02*
X145095238Y-61954819D01*
X145095238Y-61954819D02*
X145238095Y-62002438D01*
X145571429Y-61954819D02*
X145809524Y-62954819D01*
X145809524Y-62954819D02*
X146000000Y-62240533D01*
X146000000Y-62240533D02*
X146190476Y-62954819D01*
X146190476Y-62954819D02*
X146428572Y-61954819D01*
X147285714Y-61954819D02*
X146809524Y-61954819D01*
X146809524Y-61954819D02*
X146761905Y-62431009D01*
X146761905Y-62431009D02*
X146809524Y-62383390D01*
X146809524Y-62383390D02*
X146904762Y-62335771D01*
X146904762Y-62335771D02*
X147142857Y-62335771D01*
X147142857Y-62335771D02*
X147238095Y-62383390D01*
X147238095Y-62383390D02*
X147285714Y-62431009D01*
X147285714Y-62431009D02*
X147333333Y-62526247D01*
X147333333Y-62526247D02*
X147333333Y-62764342D01*
X147333333Y-62764342D02*
X147285714Y-62859580D01*
X147285714Y-62859580D02*
X147238095Y-62907200D01*
X147238095Y-62907200D02*
X147142857Y-62954819D01*
X147142857Y-62954819D02*
X146904762Y-62954819D01*
X146904762Y-62954819D02*
X146809524Y-62907200D01*
X146809524Y-62907200D02*
X146761905Y-62859580D01*
X146166667Y-70654819D02*
X146833333Y-71654819D01*
X146833333Y-70654819D02*
X146166667Y-71654819D01*
X81166667Y-95657200D02*
X81309524Y-95704819D01*
X81309524Y-95704819D02*
X81547619Y-95704819D01*
X81547619Y-95704819D02*
X81642857Y-95657200D01*
X81642857Y-95657200D02*
X81690476Y-95609580D01*
X81690476Y-95609580D02*
X81738095Y-95514342D01*
X81738095Y-95514342D02*
X81738095Y-95419104D01*
X81738095Y-95419104D02*
X81690476Y-95323866D01*
X81690476Y-95323866D02*
X81642857Y-95276247D01*
X81642857Y-95276247D02*
X81547619Y-95228628D01*
X81547619Y-95228628D02*
X81357143Y-95181009D01*
X81357143Y-95181009D02*
X81261905Y-95133390D01*
X81261905Y-95133390D02*
X81214286Y-95085771D01*
X81214286Y-95085771D02*
X81166667Y-94990533D01*
X81166667Y-94990533D02*
X81166667Y-94895295D01*
X81166667Y-94895295D02*
X81214286Y-94800057D01*
X81214286Y-94800057D02*
X81261905Y-94752438D01*
X81261905Y-94752438D02*
X81357143Y-94704819D01*
X81357143Y-94704819D02*
X81595238Y-94704819D01*
X81595238Y-94704819D02*
X81738095Y-94752438D01*
X82071429Y-94704819D02*
X82309524Y-95704819D01*
X82309524Y-95704819D02*
X82500000Y-94990533D01*
X82500000Y-94990533D02*
X82690476Y-95704819D01*
X82690476Y-95704819D02*
X82928572Y-94704819D01*
X83738095Y-95038152D02*
X83738095Y-95704819D01*
X83500000Y-94657200D02*
X83261905Y-95371485D01*
X83261905Y-95371485D02*
X83880952Y-95371485D01*
X81666666Y-104404819D02*
X81333333Y-103928628D01*
X81095238Y-104404819D02*
X81095238Y-103404819D01*
X81095238Y-103404819D02*
X81476190Y-103404819D01*
X81476190Y-103404819D02*
X81571428Y-103452438D01*
X81571428Y-103452438D02*
X81619047Y-103500057D01*
X81619047Y-103500057D02*
X81666666Y-103595295D01*
X81666666Y-103595295D02*
X81666666Y-103738152D01*
X81666666Y-103738152D02*
X81619047Y-103833390D01*
X81619047Y-103833390D02*
X81571428Y-103881009D01*
X81571428Y-103881009D02*
X81476190Y-103928628D01*
X81476190Y-103928628D02*
X81095238Y-103928628D01*
X82095238Y-104404819D02*
X82095238Y-103404819D01*
X83095237Y-103452438D02*
X82999999Y-103404819D01*
X82999999Y-103404819D02*
X82857142Y-103404819D01*
X82857142Y-103404819D02*
X82714285Y-103452438D01*
X82714285Y-103452438D02*
X82619047Y-103547676D01*
X82619047Y-103547676D02*
X82571428Y-103642914D01*
X82571428Y-103642914D02*
X82523809Y-103833390D01*
X82523809Y-103833390D02*
X82523809Y-103976247D01*
X82523809Y-103976247D02*
X82571428Y-104166723D01*
X82571428Y-104166723D02*
X82619047Y-104261961D01*
X82619047Y-104261961D02*
X82714285Y-104357200D01*
X82714285Y-104357200D02*
X82857142Y-104404819D01*
X82857142Y-104404819D02*
X82952380Y-104404819D01*
X82952380Y-104404819D02*
X83095237Y-104357200D01*
X83095237Y-104357200D02*
X83142856Y-104309580D01*
X83142856Y-104309580D02*
X83142856Y-103976247D01*
X83142856Y-103976247D02*
X82952380Y-103976247D01*
X83571428Y-104404819D02*
X83571428Y-103404819D01*
X83571428Y-103881009D02*
X84142856Y-103881009D01*
X84142856Y-104404819D02*
X84142856Y-103404819D01*
X84476190Y-103404819D02*
X85047618Y-103404819D01*
X84761904Y-104404819D02*
X84761904Y-103404819D01*
X147834819Y-48258333D02*
X148549104Y-48258333D01*
X148549104Y-48258333D02*
X148691961Y-48305952D01*
X148691961Y-48305952D02*
X148787200Y-48401190D01*
X148787200Y-48401190D02*
X148834819Y-48544047D01*
X148834819Y-48544047D02*
X148834819Y-48639285D01*
X148834819Y-47258333D02*
X148834819Y-47829761D01*
X148834819Y-47544047D02*
X147834819Y-47544047D01*
X147834819Y-47544047D02*
X147977676Y-47639285D01*
X147977676Y-47639285D02*
X148072914Y-47734523D01*
X148072914Y-47734523D02*
X148120533Y-47829761D01*
X70416667Y-102657200D02*
X70559524Y-102704819D01*
X70559524Y-102704819D02*
X70797619Y-102704819D01*
X70797619Y-102704819D02*
X70892857Y-102657200D01*
X70892857Y-102657200D02*
X70940476Y-102609580D01*
X70940476Y-102609580D02*
X70988095Y-102514342D01*
X70988095Y-102514342D02*
X70988095Y-102419104D01*
X70988095Y-102419104D02*
X70940476Y-102323866D01*
X70940476Y-102323866D02*
X70892857Y-102276247D01*
X70892857Y-102276247D02*
X70797619Y-102228628D01*
X70797619Y-102228628D02*
X70607143Y-102181009D01*
X70607143Y-102181009D02*
X70511905Y-102133390D01*
X70511905Y-102133390D02*
X70464286Y-102085771D01*
X70464286Y-102085771D02*
X70416667Y-101990533D01*
X70416667Y-101990533D02*
X70416667Y-101895295D01*
X70416667Y-101895295D02*
X70464286Y-101800057D01*
X70464286Y-101800057D02*
X70511905Y-101752438D01*
X70511905Y-101752438D02*
X70607143Y-101704819D01*
X70607143Y-101704819D02*
X70845238Y-101704819D01*
X70845238Y-101704819D02*
X70988095Y-101752438D01*
X71321429Y-101704819D02*
X71559524Y-102704819D01*
X71559524Y-102704819D02*
X71750000Y-101990533D01*
X71750000Y-101990533D02*
X71940476Y-102704819D01*
X71940476Y-102704819D02*
X72178572Y-101704819D01*
X72464286Y-101704819D02*
X73083333Y-101704819D01*
X73083333Y-101704819D02*
X72750000Y-102085771D01*
X72750000Y-102085771D02*
X72892857Y-102085771D01*
X72892857Y-102085771D02*
X72988095Y-102133390D01*
X72988095Y-102133390D02*
X73035714Y-102181009D01*
X73035714Y-102181009D02*
X73083333Y-102276247D01*
X73083333Y-102276247D02*
X73083333Y-102514342D01*
X73083333Y-102514342D02*
X73035714Y-102609580D01*
X73035714Y-102609580D02*
X72988095Y-102657200D01*
X72988095Y-102657200D02*
X72892857Y-102704819D01*
X72892857Y-102704819D02*
X72607143Y-102704819D01*
X72607143Y-102704819D02*
X72511905Y-102657200D01*
X72511905Y-102657200D02*
X72464286Y-102609580D01*
X70369048Y-111404819D02*
X70369048Y-110404819D01*
X70369048Y-110404819D02*
X70607143Y-110404819D01*
X70607143Y-110404819D02*
X70750000Y-110452438D01*
X70750000Y-110452438D02*
X70845238Y-110547676D01*
X70845238Y-110547676D02*
X70892857Y-110642914D01*
X70892857Y-110642914D02*
X70940476Y-110833390D01*
X70940476Y-110833390D02*
X70940476Y-110976247D01*
X70940476Y-110976247D02*
X70892857Y-111166723D01*
X70892857Y-111166723D02*
X70845238Y-111261961D01*
X70845238Y-111261961D02*
X70750000Y-111357200D01*
X70750000Y-111357200D02*
X70607143Y-111404819D01*
X70607143Y-111404819D02*
X70369048Y-111404819D01*
X71559524Y-110404819D02*
X71750000Y-110404819D01*
X71750000Y-110404819D02*
X71845238Y-110452438D01*
X71845238Y-110452438D02*
X71940476Y-110547676D01*
X71940476Y-110547676D02*
X71988095Y-110738152D01*
X71988095Y-110738152D02*
X71988095Y-111071485D01*
X71988095Y-111071485D02*
X71940476Y-111261961D01*
X71940476Y-111261961D02*
X71845238Y-111357200D01*
X71845238Y-111357200D02*
X71750000Y-111404819D01*
X71750000Y-111404819D02*
X71559524Y-111404819D01*
X71559524Y-111404819D02*
X71464286Y-111357200D01*
X71464286Y-111357200D02*
X71369048Y-111261961D01*
X71369048Y-111261961D02*
X71321429Y-111071485D01*
X71321429Y-111071485D02*
X71321429Y-110738152D01*
X71321429Y-110738152D02*
X71369048Y-110547676D01*
X71369048Y-110547676D02*
X71464286Y-110452438D01*
X71464286Y-110452438D02*
X71559524Y-110404819D01*
X72321429Y-110404819D02*
X72559524Y-111404819D01*
X72559524Y-111404819D02*
X72750000Y-110690533D01*
X72750000Y-110690533D02*
X72940476Y-111404819D01*
X72940476Y-111404819D02*
X73178572Y-110404819D01*
X73559524Y-111404819D02*
X73559524Y-110404819D01*
X73559524Y-110404819D02*
X74130952Y-111404819D01*
X74130952Y-111404819D02*
X74130952Y-110404819D01*
X135666666Y-40294819D02*
X135666666Y-41009104D01*
X135666666Y-41009104D02*
X135619047Y-41151961D01*
X135619047Y-41151961D02*
X135523809Y-41247200D01*
X135523809Y-41247200D02*
X135380952Y-41294819D01*
X135380952Y-41294819D02*
X135285714Y-41294819D01*
X136142857Y-41294819D02*
X136142857Y-40294819D01*
X136142857Y-40294819D02*
X136523809Y-40294819D01*
X136523809Y-40294819D02*
X136619047Y-40342438D01*
X136619047Y-40342438D02*
X136666666Y-40390057D01*
X136666666Y-40390057D02*
X136714285Y-40485295D01*
X136714285Y-40485295D02*
X136714285Y-40628152D01*
X136714285Y-40628152D02*
X136666666Y-40723390D01*
X136666666Y-40723390D02*
X136619047Y-40771009D01*
X136619047Y-40771009D02*
X136523809Y-40818628D01*
X136523809Y-40818628D02*
X136142857Y-40818628D01*
X137095238Y-40390057D02*
X137142857Y-40342438D01*
X137142857Y-40342438D02*
X137238095Y-40294819D01*
X137238095Y-40294819D02*
X137476190Y-40294819D01*
X137476190Y-40294819D02*
X137571428Y-40342438D01*
X137571428Y-40342438D02*
X137619047Y-40390057D01*
X137619047Y-40390057D02*
X137666666Y-40485295D01*
X137666666Y-40485295D02*
X137666666Y-40580533D01*
X137666666Y-40580533D02*
X137619047Y-40723390D01*
X137619047Y-40723390D02*
X137047619Y-41294819D01*
X137047619Y-41294819D02*
X137666666Y-41294819D01*
X135309524Y-51034819D02*
X135309524Y-50034819D01*
X135309524Y-50034819D02*
X135547619Y-50034819D01*
X135547619Y-50034819D02*
X135690476Y-50082438D01*
X135690476Y-50082438D02*
X135785714Y-50177676D01*
X135785714Y-50177676D02*
X135833333Y-50272914D01*
X135833333Y-50272914D02*
X135880952Y-50463390D01*
X135880952Y-50463390D02*
X135880952Y-50606247D01*
X135880952Y-50606247D02*
X135833333Y-50796723D01*
X135833333Y-50796723D02*
X135785714Y-50891961D01*
X135785714Y-50891961D02*
X135690476Y-50987200D01*
X135690476Y-50987200D02*
X135547619Y-51034819D01*
X135547619Y-51034819D02*
X135309524Y-51034819D01*
X136261905Y-50749104D02*
X136738095Y-50749104D01*
X136166667Y-51034819D02*
X136500000Y-50034819D01*
X136500000Y-50034819D02*
X136833333Y-51034819D01*
X137738095Y-50939580D02*
X137690476Y-50987200D01*
X137690476Y-50987200D02*
X137547619Y-51034819D01*
X137547619Y-51034819D02*
X137452381Y-51034819D01*
X137452381Y-51034819D02*
X137309524Y-50987200D01*
X137309524Y-50987200D02*
X137214286Y-50891961D01*
X137214286Y-50891961D02*
X137166667Y-50796723D01*
X137166667Y-50796723D02*
X137119048Y-50606247D01*
X137119048Y-50606247D02*
X137119048Y-50463390D01*
X137119048Y-50463390D02*
X137166667Y-50272914D01*
X137166667Y-50272914D02*
X137214286Y-50177676D01*
X137214286Y-50177676D02*
X137309524Y-50082438D01*
X137309524Y-50082438D02*
X137452381Y-50034819D01*
X137452381Y-50034819D02*
X137547619Y-50034819D01*
X137547619Y-50034819D02*
X137690476Y-50082438D01*
X137690476Y-50082438D02*
X137738095Y-50130057D01*
X113951905Y-111494819D02*
X113951905Y-110494819D01*
X113951905Y-110494819D02*
X114190000Y-110494819D01*
X114190000Y-110494819D02*
X114332857Y-110542438D01*
X114332857Y-110542438D02*
X114428095Y-110637676D01*
X114428095Y-110637676D02*
X114475714Y-110732914D01*
X114475714Y-110732914D02*
X114523333Y-110923390D01*
X114523333Y-110923390D02*
X114523333Y-111066247D01*
X114523333Y-111066247D02*
X114475714Y-111256723D01*
X114475714Y-111256723D02*
X114428095Y-111351961D01*
X114428095Y-111351961D02*
X114332857Y-111447200D01*
X114332857Y-111447200D02*
X114190000Y-111494819D01*
X114190000Y-111494819D02*
X113951905Y-111494819D01*
X115475714Y-111494819D02*
X114904286Y-111494819D01*
X115190000Y-111494819D02*
X115190000Y-110494819D01*
X115190000Y-110494819D02*
X115094762Y-110637676D01*
X115094762Y-110637676D02*
X114999524Y-110732914D01*
X114999524Y-110732914D02*
X114904286Y-110780533D01*
X144666667Y-77157200D02*
X144809524Y-77204819D01*
X144809524Y-77204819D02*
X145047619Y-77204819D01*
X145047619Y-77204819D02*
X145142857Y-77157200D01*
X145142857Y-77157200D02*
X145190476Y-77109580D01*
X145190476Y-77109580D02*
X145238095Y-77014342D01*
X145238095Y-77014342D02*
X145238095Y-76919104D01*
X145238095Y-76919104D02*
X145190476Y-76823866D01*
X145190476Y-76823866D02*
X145142857Y-76776247D01*
X145142857Y-76776247D02*
X145047619Y-76728628D01*
X145047619Y-76728628D02*
X144857143Y-76681009D01*
X144857143Y-76681009D02*
X144761905Y-76633390D01*
X144761905Y-76633390D02*
X144714286Y-76585771D01*
X144714286Y-76585771D02*
X144666667Y-76490533D01*
X144666667Y-76490533D02*
X144666667Y-76395295D01*
X144666667Y-76395295D02*
X144714286Y-76300057D01*
X144714286Y-76300057D02*
X144761905Y-76252438D01*
X144761905Y-76252438D02*
X144857143Y-76204819D01*
X144857143Y-76204819D02*
X145095238Y-76204819D01*
X145095238Y-76204819D02*
X145238095Y-76252438D01*
X145571429Y-76204819D02*
X145809524Y-77204819D01*
X145809524Y-77204819D02*
X146000000Y-76490533D01*
X146000000Y-76490533D02*
X146190476Y-77204819D01*
X146190476Y-77204819D02*
X146428572Y-76204819D01*
X146952381Y-76633390D02*
X146857143Y-76585771D01*
X146857143Y-76585771D02*
X146809524Y-76538152D01*
X146809524Y-76538152D02*
X146761905Y-76442914D01*
X146761905Y-76442914D02*
X146761905Y-76395295D01*
X146761905Y-76395295D02*
X146809524Y-76300057D01*
X146809524Y-76300057D02*
X146857143Y-76252438D01*
X146857143Y-76252438D02*
X146952381Y-76204819D01*
X146952381Y-76204819D02*
X147142857Y-76204819D01*
X147142857Y-76204819D02*
X147238095Y-76252438D01*
X147238095Y-76252438D02*
X147285714Y-76300057D01*
X147285714Y-76300057D02*
X147333333Y-76395295D01*
X147333333Y-76395295D02*
X147333333Y-76442914D01*
X147333333Y-76442914D02*
X147285714Y-76538152D01*
X147285714Y-76538152D02*
X147238095Y-76585771D01*
X147238095Y-76585771D02*
X147142857Y-76633390D01*
X147142857Y-76633390D02*
X146952381Y-76633390D01*
X146952381Y-76633390D02*
X146857143Y-76681009D01*
X146857143Y-76681009D02*
X146809524Y-76728628D01*
X146809524Y-76728628D02*
X146761905Y-76823866D01*
X146761905Y-76823866D02*
X146761905Y-77014342D01*
X146761905Y-77014342D02*
X146809524Y-77109580D01*
X146809524Y-77109580D02*
X146857143Y-77157200D01*
X146857143Y-77157200D02*
X146952381Y-77204819D01*
X146952381Y-77204819D02*
X147142857Y-77204819D01*
X147142857Y-77204819D02*
X147238095Y-77157200D01*
X147238095Y-77157200D02*
X147285714Y-77109580D01*
X147285714Y-77109580D02*
X147333333Y-77014342D01*
X147333333Y-77014342D02*
X147333333Y-76823866D01*
X147333333Y-76823866D02*
X147285714Y-76728628D01*
X147285714Y-76728628D02*
X147238095Y-76681009D01*
X147238095Y-76681009D02*
X147142857Y-76633390D01*
X146571428Y-85381009D02*
X146714285Y-85428628D01*
X146714285Y-85428628D02*
X146761904Y-85476247D01*
X146761904Y-85476247D02*
X146809523Y-85571485D01*
X146809523Y-85571485D02*
X146809523Y-85714342D01*
X146809523Y-85714342D02*
X146761904Y-85809580D01*
X146761904Y-85809580D02*
X146714285Y-85857200D01*
X146714285Y-85857200D02*
X146619047Y-85904819D01*
X146619047Y-85904819D02*
X146238095Y-85904819D01*
X146238095Y-85904819D02*
X146238095Y-84904819D01*
X146238095Y-84904819D02*
X146571428Y-84904819D01*
X146571428Y-84904819D02*
X146666666Y-84952438D01*
X146666666Y-84952438D02*
X146714285Y-85000057D01*
X146714285Y-85000057D02*
X146761904Y-85095295D01*
X146761904Y-85095295D02*
X146761904Y-85190533D01*
X146761904Y-85190533D02*
X146714285Y-85285771D01*
X146714285Y-85285771D02*
X146666666Y-85333390D01*
X146666666Y-85333390D02*
X146571428Y-85381009D01*
X146571428Y-85381009D02*
X146238095Y-85381009D01*
X131111666Y-40294819D02*
X131111666Y-41009104D01*
X131111666Y-41009104D02*
X131064047Y-41151961D01*
X131064047Y-41151961D02*
X130968809Y-41247200D01*
X130968809Y-41247200D02*
X130825952Y-41294819D01*
X130825952Y-41294819D02*
X130730714Y-41294819D01*
X131587857Y-41294819D02*
X131587857Y-40294819D01*
X131587857Y-40294819D02*
X131968809Y-40294819D01*
X131968809Y-40294819D02*
X132064047Y-40342438D01*
X132064047Y-40342438D02*
X132111666Y-40390057D01*
X132111666Y-40390057D02*
X132159285Y-40485295D01*
X132159285Y-40485295D02*
X132159285Y-40628152D01*
X132159285Y-40628152D02*
X132111666Y-40723390D01*
X132111666Y-40723390D02*
X132064047Y-40771009D01*
X132064047Y-40771009D02*
X131968809Y-40818628D01*
X131968809Y-40818628D02*
X131587857Y-40818628D01*
X133111666Y-41294819D02*
X132540238Y-41294819D01*
X132825952Y-41294819D02*
X132825952Y-40294819D01*
X132825952Y-40294819D02*
X132730714Y-40437676D01*
X132730714Y-40437676D02*
X132635476Y-40532914D01*
X132635476Y-40532914D02*
X132540238Y-40580533D01*
X122716905Y-111494819D02*
X122716905Y-110494819D01*
X122716905Y-110494819D02*
X122955000Y-110494819D01*
X122955000Y-110494819D02*
X123097857Y-110542438D01*
X123097857Y-110542438D02*
X123193095Y-110637676D01*
X123193095Y-110637676D02*
X123240714Y-110732914D01*
X123240714Y-110732914D02*
X123288333Y-110923390D01*
X123288333Y-110923390D02*
X123288333Y-111066247D01*
X123288333Y-111066247D02*
X123240714Y-111256723D01*
X123240714Y-111256723D02*
X123193095Y-111351961D01*
X123193095Y-111351961D02*
X123097857Y-111447200D01*
X123097857Y-111447200D02*
X122955000Y-111494819D01*
X122955000Y-111494819D02*
X122716905Y-111494819D01*
X123669286Y-110590057D02*
X123716905Y-110542438D01*
X123716905Y-110542438D02*
X123812143Y-110494819D01*
X123812143Y-110494819D02*
X124050238Y-110494819D01*
X124050238Y-110494819D02*
X124145476Y-110542438D01*
X124145476Y-110542438D02*
X124193095Y-110590057D01*
X124193095Y-110590057D02*
X124240714Y-110685295D01*
X124240714Y-110685295D02*
X124240714Y-110780533D01*
X124240714Y-110780533D02*
X124193095Y-110923390D01*
X124193095Y-110923390D02*
X123621667Y-111494819D01*
X123621667Y-111494819D02*
X124240714Y-111494819D01*
X92353095Y-98604819D02*
X92353095Y-99414342D01*
X92353095Y-99414342D02*
X92400714Y-99509580D01*
X92400714Y-99509580D02*
X92448333Y-99557200D01*
X92448333Y-99557200D02*
X92543571Y-99604819D01*
X92543571Y-99604819D02*
X92734047Y-99604819D01*
X92734047Y-99604819D02*
X92829285Y-99557200D01*
X92829285Y-99557200D02*
X92876904Y-99509580D01*
X92876904Y-99509580D02*
X92924523Y-99414342D01*
X92924523Y-99414342D02*
X92924523Y-98604819D01*
X93924523Y-99604819D02*
X93353095Y-99604819D01*
X93638809Y-99604819D02*
X93638809Y-98604819D01*
X93638809Y-98604819D02*
X93543571Y-98747676D01*
X93543571Y-98747676D02*
X93448333Y-98842914D01*
X93448333Y-98842914D02*
X93353095Y-98890533D01*
D13*
X96482693Y-91402419D02*
X95911265Y-91402419D01*
X96196979Y-91402419D02*
X96196979Y-90402419D01*
X96196979Y-90402419D02*
X96101741Y-90545276D01*
X96101741Y-90545276D02*
X96006503Y-90640514D01*
X96006503Y-90640514D02*
X95911265Y-90688133D01*
X94974598Y-49873371D02*
X94926979Y-49825752D01*
X94926979Y-49825752D02*
X94831741Y-49682895D01*
X94831741Y-49682895D02*
X94784122Y-49587657D01*
X94784122Y-49587657D02*
X94736503Y-49444800D01*
X94736503Y-49444800D02*
X94688884Y-49206704D01*
X94688884Y-49206704D02*
X94688884Y-49016228D01*
X94688884Y-49016228D02*
X94736503Y-48778133D01*
X94736503Y-48778133D02*
X94784122Y-48635276D01*
X94784122Y-48635276D02*
X94831741Y-48540038D01*
X94831741Y-48540038D02*
X94926979Y-48397180D01*
X94926979Y-48397180D02*
X94974598Y-48349561D01*
X95546027Y-48492419D02*
X95641265Y-48492419D01*
X95641265Y-48492419D02*
X95736503Y-48540038D01*
X95736503Y-48540038D02*
X95784122Y-48587657D01*
X95784122Y-48587657D02*
X95831741Y-48682895D01*
X95831741Y-48682895D02*
X95879360Y-48873371D01*
X95879360Y-48873371D02*
X95879360Y-49111466D01*
X95879360Y-49111466D02*
X95831741Y-49301942D01*
X95831741Y-49301942D02*
X95784122Y-49397180D01*
X95784122Y-49397180D02*
X95736503Y-49444800D01*
X95736503Y-49444800D02*
X95641265Y-49492419D01*
X95641265Y-49492419D02*
X95546027Y-49492419D01*
X95546027Y-49492419D02*
X95450789Y-49444800D01*
X95450789Y-49444800D02*
X95403170Y-49397180D01*
X95403170Y-49397180D02*
X95355551Y-49301942D01*
X95355551Y-49301942D02*
X95307932Y-49111466D01*
X95307932Y-49111466D02*
X95307932Y-48873371D01*
X95307932Y-48873371D02*
X95355551Y-48682895D01*
X95355551Y-48682895D02*
X95403170Y-48587657D01*
X95403170Y-48587657D02*
X95450789Y-48540038D01*
X95450789Y-48540038D02*
X95546027Y-48492419D01*
X96355551Y-49444800D02*
X96355551Y-49492419D01*
X96355551Y-49492419D02*
X96307932Y-49587657D01*
X96307932Y-49587657D02*
X96260313Y-49635276D01*
X96974598Y-48492419D02*
X97069836Y-48492419D01*
X97069836Y-48492419D02*
X97165074Y-48540038D01*
X97165074Y-48540038D02*
X97212693Y-48587657D01*
X97212693Y-48587657D02*
X97260312Y-48682895D01*
X97260312Y-48682895D02*
X97307931Y-48873371D01*
X97307931Y-48873371D02*
X97307931Y-49111466D01*
X97307931Y-49111466D02*
X97260312Y-49301942D01*
X97260312Y-49301942D02*
X97212693Y-49397180D01*
X97212693Y-49397180D02*
X97165074Y-49444800D01*
X97165074Y-49444800D02*
X97069836Y-49492419D01*
X97069836Y-49492419D02*
X96974598Y-49492419D01*
X96974598Y-49492419D02*
X96879360Y-49444800D01*
X96879360Y-49444800D02*
X96831741Y-49397180D01*
X96831741Y-49397180D02*
X96784122Y-49301942D01*
X96784122Y-49301942D02*
X96736503Y-49111466D01*
X96736503Y-49111466D02*
X96736503Y-48873371D01*
X96736503Y-48873371D02*
X96784122Y-48682895D01*
X96784122Y-48682895D02*
X96831741Y-48587657D01*
X96831741Y-48587657D02*
X96879360Y-48540038D01*
X96879360Y-48540038D02*
X96974598Y-48492419D01*
X97641265Y-49873371D02*
X97688884Y-49825752D01*
X97688884Y-49825752D02*
X97784122Y-49682895D01*
X97784122Y-49682895D02*
X97831741Y-49587657D01*
X97831741Y-49587657D02*
X97879360Y-49444800D01*
X97879360Y-49444800D02*
X97926979Y-49206704D01*
X97926979Y-49206704D02*
X97926979Y-49016228D01*
X97926979Y-49016228D02*
X97879360Y-48778133D01*
X97879360Y-48778133D02*
X97831741Y-48635276D01*
X97831741Y-48635276D02*
X97784122Y-48540038D01*
X97784122Y-48540038D02*
X97688884Y-48397180D01*
X97688884Y-48397180D02*
X97641265Y-48349561D01*
X116564598Y-87973371D02*
X116516979Y-87925752D01*
X116516979Y-87925752D02*
X116421741Y-87782895D01*
X116421741Y-87782895D02*
X116374122Y-87687657D01*
X116374122Y-87687657D02*
X116326503Y-87544800D01*
X116326503Y-87544800D02*
X116278884Y-87306704D01*
X116278884Y-87306704D02*
X116278884Y-87116228D01*
X116278884Y-87116228D02*
X116326503Y-86878133D01*
X116326503Y-86878133D02*
X116374122Y-86735276D01*
X116374122Y-86735276D02*
X116421741Y-86640038D01*
X116421741Y-86640038D02*
X116516979Y-86497180D01*
X116516979Y-86497180D02*
X116564598Y-86449561D01*
X117469360Y-87592419D02*
X116897932Y-87592419D01*
X117183646Y-87592419D02*
X117183646Y-86592419D01*
X117183646Y-86592419D02*
X117088408Y-86735276D01*
X117088408Y-86735276D02*
X116993170Y-86830514D01*
X116993170Y-86830514D02*
X116897932Y-86878133D01*
X117850313Y-86687657D02*
X117897932Y-86640038D01*
X117897932Y-86640038D02*
X117993170Y-86592419D01*
X117993170Y-86592419D02*
X118231265Y-86592419D01*
X118231265Y-86592419D02*
X118326503Y-86640038D01*
X118326503Y-86640038D02*
X118374122Y-86687657D01*
X118374122Y-86687657D02*
X118421741Y-86782895D01*
X118421741Y-86782895D02*
X118421741Y-86878133D01*
X118421741Y-86878133D02*
X118374122Y-87020990D01*
X118374122Y-87020990D02*
X117802694Y-87592419D01*
X117802694Y-87592419D02*
X118421741Y-87592419D01*
X118755075Y-86592419D02*
X119421741Y-86592419D01*
X119421741Y-86592419D02*
X118993170Y-87592419D01*
X119850313Y-87544800D02*
X119850313Y-87592419D01*
X119850313Y-87592419D02*
X119802694Y-87687657D01*
X119802694Y-87687657D02*
X119755075Y-87735276D01*
X120802693Y-87592419D02*
X120231265Y-87592419D01*
X120516979Y-87592419D02*
X120516979Y-86592419D01*
X120516979Y-86592419D02*
X120421741Y-86735276D01*
X120421741Y-86735276D02*
X120326503Y-86830514D01*
X120326503Y-86830514D02*
X120231265Y-86878133D01*
X121707455Y-86592419D02*
X121231265Y-86592419D01*
X121231265Y-86592419D02*
X121183646Y-87068609D01*
X121183646Y-87068609D02*
X121231265Y-87020990D01*
X121231265Y-87020990D02*
X121326503Y-86973371D01*
X121326503Y-86973371D02*
X121564598Y-86973371D01*
X121564598Y-86973371D02*
X121659836Y-87020990D01*
X121659836Y-87020990D02*
X121707455Y-87068609D01*
X121707455Y-87068609D02*
X121755074Y-87163847D01*
X121755074Y-87163847D02*
X121755074Y-87401942D01*
X121755074Y-87401942D02*
X121707455Y-87497180D01*
X121707455Y-87497180D02*
X121659836Y-87544800D01*
X121659836Y-87544800D02*
X121564598Y-87592419D01*
X121564598Y-87592419D02*
X121326503Y-87592419D01*
X121326503Y-87592419D02*
X121231265Y-87544800D01*
X121231265Y-87544800D02*
X121183646Y-87497180D01*
X122231265Y-87592419D02*
X122421741Y-87592419D01*
X122421741Y-87592419D02*
X122516979Y-87544800D01*
X122516979Y-87544800D02*
X122564598Y-87497180D01*
X122564598Y-87497180D02*
X122659836Y-87354323D01*
X122659836Y-87354323D02*
X122707455Y-87163847D01*
X122707455Y-87163847D02*
X122707455Y-86782895D01*
X122707455Y-86782895D02*
X122659836Y-86687657D01*
X122659836Y-86687657D02*
X122612217Y-86640038D01*
X122612217Y-86640038D02*
X122516979Y-86592419D01*
X122516979Y-86592419D02*
X122326503Y-86592419D01*
X122326503Y-86592419D02*
X122231265Y-86640038D01*
X122231265Y-86640038D02*
X122183646Y-86687657D01*
X122183646Y-86687657D02*
X122136027Y-86782895D01*
X122136027Y-86782895D02*
X122136027Y-87020990D01*
X122136027Y-87020990D02*
X122183646Y-87116228D01*
X122183646Y-87116228D02*
X122231265Y-87163847D01*
X122231265Y-87163847D02*
X122326503Y-87211466D01*
X122326503Y-87211466D02*
X122516979Y-87211466D01*
X122516979Y-87211466D02*
X122612217Y-87163847D01*
X122612217Y-87163847D02*
X122659836Y-87116228D01*
X122659836Y-87116228D02*
X122707455Y-87020990D01*
X123040789Y-87973371D02*
X123088408Y-87925752D01*
X123088408Y-87925752D02*
X123183646Y-87782895D01*
X123183646Y-87782895D02*
X123231265Y-87687657D01*
X123231265Y-87687657D02*
X123278884Y-87544800D01*
X123278884Y-87544800D02*
X123326503Y-87306704D01*
X123326503Y-87306704D02*
X123326503Y-87116228D01*
X123326503Y-87116228D02*
X123278884Y-86878133D01*
X123278884Y-86878133D02*
X123231265Y-86735276D01*
X123231265Y-86735276D02*
X123183646Y-86640038D01*
X123183646Y-86640038D02*
X123088408Y-86497180D01*
X123088408Y-86497180D02*
X123040789Y-86449561D01*
D14*
X159920000Y-51060000D02*
X159920000Y-45920000D01*
X162580000Y-45920000D02*
X159920000Y-45920000D01*
X162580000Y-51060000D02*
X159920000Y-51060000D01*
X162580000Y-51060000D02*
X162580000Y-45920000D01*
X162580000Y-52330000D02*
X162580000Y-53660000D01*
X162580000Y-53660000D02*
X161250000Y-53660000D01*
D15*
G36*
X57815507Y-79488576D02*
G01*
X57837000Y-79547000D01*
X57734135Y-79659671D01*
X57646500Y-79674000D01*
X57477492Y-79605423D01*
X57456000Y-79547000D01*
X57558864Y-79434328D01*
X57646500Y-79420000D01*
X57815507Y-79488576D01*
G37*
G36*
X58043370Y-78838184D02*
G01*
X58091000Y-78912000D01*
X57984631Y-79015185D01*
X57837000Y-79039000D01*
X57630629Y-78985815D01*
X57583000Y-78912000D01*
X57689368Y-78808814D01*
X57837000Y-78785000D01*
X58043370Y-78838184D01*
G37*
G36*
X58046761Y-79982628D02*
G01*
X58091000Y-80055000D01*
X57982091Y-80149659D01*
X57766004Y-80182000D01*
X57549928Y-80141685D01*
X57519500Y-80055000D01*
X57698629Y-79948311D01*
X57844495Y-79928000D01*
X58046761Y-79982628D01*
G37*
G36*
X60425172Y-78701473D02*
G01*
X60504000Y-78785000D01*
X60395315Y-78880468D01*
X60186500Y-78912000D01*
X59947827Y-78868526D01*
X59869000Y-78785000D01*
X59977684Y-78689531D01*
X60186500Y-78658000D01*
X60425172Y-78701473D01*
G37*
G36*
X60425172Y-79336473D02*
G01*
X60504000Y-79420000D01*
X60395315Y-79515468D01*
X60186500Y-79547000D01*
X59947827Y-79503526D01*
X59869000Y-79420000D01*
X59977684Y-79324531D01*
X60186500Y-79293000D01*
X60425172Y-79336473D01*
G37*
G36*
X61314172Y-78828473D02*
G01*
X61393000Y-78912000D01*
X61284315Y-79007468D01*
X61075500Y-79039000D01*
X60836827Y-78995526D01*
X60758000Y-78912000D01*
X60866684Y-78816531D01*
X61075500Y-78785000D01*
X61314172Y-78828473D01*
G37*
G36*
X61345856Y-80007409D02*
G01*
X61393000Y-80118500D01*
X61375960Y-80279273D01*
X61361250Y-80294267D01*
X61228593Y-80254129D01*
X61107250Y-80221455D01*
X60908248Y-80106308D01*
X60931038Y-79980586D01*
X61139000Y-79928000D01*
X61345856Y-80007409D01*
G37*
G36*
X58866572Y-78690628D02*
G01*
X58979972Y-78769238D01*
X58980000Y-78770585D01*
X58869696Y-78865808D01*
X58603908Y-78938360D01*
X58599000Y-78939090D01*
X58304143Y-78938081D01*
X58218000Y-78826504D01*
X58331734Y-78699476D01*
X58599000Y-78658000D01*
X58866572Y-78690628D01*
G37*
G36*
X60545369Y-79904199D02*
G01*
X60631000Y-80051014D01*
X60604024Y-80146451D01*
X60479344Y-80155903D01*
X60191331Y-80080508D01*
X60123000Y-80059821D01*
X59916361Y-79980138D01*
X59936614Y-79912286D01*
X60027750Y-79868393D01*
X60309363Y-79825470D01*
X60545369Y-79904199D01*
G37*
G36*
X61097042Y-79354288D02*
G01*
X61320967Y-79453417D01*
X61393000Y-79549419D01*
X61292292Y-79652264D01*
X61058287Y-79659468D01*
X60793157Y-79570622D01*
X60761677Y-79551960D01*
X60643922Y-79412695D01*
X60660513Y-79348153D01*
X60836748Y-79308170D01*
X61097042Y-79354288D01*
G37*
G36*
X58976621Y-79896377D02*
G01*
X58980000Y-79919564D01*
X58878046Y-80041499D01*
X58799887Y-80055000D01*
X58525565Y-80099334D01*
X58401557Y-80138737D01*
X58241191Y-80154182D01*
X58242214Y-80043487D01*
X58377729Y-79912147D01*
X58615074Y-79832129D01*
X58849591Y-79821013D01*
X58976621Y-79896377D01*
G37*
G36*
X58790110Y-79321167D02*
G01*
X58967046Y-79391531D01*
X58980000Y-79420000D01*
X58867331Y-79499527D01*
X58585872Y-79543761D01*
X58472000Y-79547000D01*
X58153889Y-79518832D01*
X57976953Y-79448468D01*
X57964000Y-79420000D01*
X58076668Y-79340472D01*
X58358127Y-79296238D01*
X58472000Y-79293000D01*
X58790110Y-79321167D01*
G37*
G36*
X59720883Y-82817250D02*
G01*
X60003310Y-83738000D01*
X60909330Y-83738000D01*
X61815349Y-83738000D01*
X61096174Y-84252989D01*
X60740025Y-84512861D01*
X60482815Y-84709768D01*
X60377349Y-84803211D01*
X60377000Y-84804607D01*
X60414954Y-84934126D01*
X60513722Y-85234461D01*
X60631000Y-85579500D01*
X60765346Y-85986932D01*
X60857415Y-86298560D01*
X60885000Y-86428996D01*
X60793929Y-86415737D01*
X60554776Y-86275038D01*
X60218625Y-86037093D01*
X60206709Y-86028114D01*
X59850419Y-85768465D01*
X59573918Y-85584197D01*
X59439286Y-85516000D01*
X59299305Y-85586229D01*
X59018072Y-85770329D01*
X58657077Y-86028006D01*
X58311791Y-86276710D01*
X58063503Y-86443390D01*
X57964142Y-86493252D01*
X57964000Y-86492388D01*
X58002062Y-86356758D01*
X58101086Y-86051695D01*
X58218000Y-85706500D01*
X58352240Y-85300405D01*
X58444300Y-84991471D01*
X58472000Y-84863580D01*
X58377655Y-84738917D01*
X58131757Y-84517964D01*
X57829131Y-84280212D01*
X57655119Y-84150634D01*
X58292853Y-84150634D01*
X58587052Y-84388862D01*
X58781928Y-84598059D01*
X58827583Y-84849417D01*
X58795110Y-85086256D01*
X58708970Y-85545421D01*
X59080195Y-85281086D01*
X59348422Y-85115184D01*
X59529556Y-85101785D01*
X59691960Y-85198836D01*
X59964366Y-85363384D01*
X60088317Y-85325245D01*
X60073000Y-85080889D01*
X60066690Y-85054936D01*
X60063831Y-84728354D01*
X60264570Y-84420990D01*
X60546294Y-84121108D01*
X60131096Y-84038069D01*
X59786886Y-83897665D01*
X59594406Y-83605538D01*
X59584201Y-83577240D01*
X59452503Y-83199451D01*
X59291180Y-83583124D01*
X59057421Y-83910324D01*
X58711355Y-84058716D01*
X58292853Y-84150634D01*
X57655119Y-84150634D01*
X57186263Y-83801500D01*
X58043425Y-83738000D01*
X58900586Y-83674500D01*
X59169521Y-82785500D01*
X59438456Y-81896500D01*
X59720883Y-82817250D01*
G37*
G36*
X60074444Y-78101347D02*
G01*
X60759770Y-78126510D01*
X61296309Y-78171263D01*
X61424750Y-78189918D01*
X61792634Y-78269069D01*
X61971702Y-78371214D01*
X62026268Y-78540317D01*
X62028000Y-78602281D01*
X62072466Y-78837205D01*
X62155000Y-78912000D01*
X62267671Y-79014864D01*
X62282000Y-79102500D01*
X62213423Y-79271507D01*
X62155000Y-79293000D01*
X62051814Y-79399368D01*
X62028000Y-79547000D01*
X62081184Y-79753370D01*
X62155000Y-79801000D01*
X62267671Y-79903864D01*
X62282000Y-79991500D01*
X62213423Y-80160507D01*
X62155000Y-80182000D01*
X62066220Y-80292458D01*
X62028029Y-80559021D01*
X62028000Y-80567374D01*
X62027999Y-80952748D01*
X61361250Y-80854180D01*
X60755143Y-80795237D01*
X59990353Y-80764827D01*
X59160572Y-80762810D01*
X58359494Y-80789043D01*
X57680811Y-80843385D01*
X57551250Y-80859932D01*
X56821000Y-80962276D01*
X56821000Y-80573001D01*
X57192556Y-80573001D01*
X57864028Y-80476208D01*
X58322110Y-80421612D01*
X58732188Y-80391587D01*
X58884750Y-80389480D01*
X59234000Y-80399546D01*
X59234000Y-79383353D01*
X59234000Y-78404000D01*
X59604315Y-78404000D01*
X59641407Y-79373314D01*
X59678500Y-80342629D01*
X60375230Y-80398129D01*
X60769066Y-80437924D01*
X61045676Y-80481650D01*
X61126647Y-80508314D01*
X61284378Y-80554884D01*
X61414166Y-80563000D01*
X61531540Y-80535586D01*
X61601542Y-80419583D01*
X61635979Y-80164345D01*
X61646658Y-79719227D01*
X61647000Y-79564262D01*
X61647000Y-78565524D01*
X61057774Y-78484762D01*
X60588624Y-78433816D01*
X60141568Y-78405842D01*
X60036432Y-78404000D01*
X59604315Y-78404000D01*
X59234000Y-78404000D01*
X59234000Y-78367160D01*
X58324236Y-78443431D01*
X57864678Y-78499713D01*
X57509384Y-78576228D01*
X57330264Y-78657150D01*
X57325802Y-78663173D01*
X57278208Y-78855666D01*
X57238403Y-79222958D01*
X57214946Y-79685851D01*
X57214845Y-79689822D01*
X57192556Y-80573001D01*
X56821000Y-80573001D01*
X56821000Y-80572138D01*
X56785008Y-80300701D01*
X56698005Y-80182192D01*
X56694000Y-80182000D01*
X56581328Y-80079135D01*
X56567000Y-79991500D01*
X56635576Y-79822492D01*
X56694000Y-79801000D01*
X56797185Y-79694631D01*
X56821000Y-79547000D01*
X56767815Y-79340629D01*
X56694000Y-79293000D01*
X56581328Y-79190135D01*
X56567000Y-79102500D01*
X56635576Y-78933492D01*
X56694000Y-78912000D01*
X56790330Y-78803558D01*
X56821000Y-78602281D01*
X56852788Y-78408309D01*
X56991137Y-78293973D01*
X57300521Y-78215713D01*
X57424250Y-78194711D01*
X57915234Y-78142457D01*
X58573227Y-78109416D01*
X59319280Y-78095681D01*
X60074444Y-78101347D01*
G37*
G36*
X62518175Y-77020470D02*
G01*
X64355825Y-77208730D01*
X64969150Y-77287606D01*
X64917560Y-80925553D01*
X64898240Y-82102087D01*
X64873359Y-83061893D01*
X64837335Y-83842241D01*
X64784591Y-84480402D01*
X64709547Y-85013647D01*
X64606624Y-85479248D01*
X64470243Y-85914474D01*
X64294825Y-86356597D01*
X64074790Y-86842889D01*
X64011792Y-86976500D01*
X63413245Y-88008031D01*
X62629454Y-88950509D01*
X61637812Y-89827063D01*
X60415716Y-90660824D01*
X60404245Y-90667812D01*
X59982104Y-90922605D01*
X59652701Y-91117350D01*
X59467962Y-91221516D01*
X59446436Y-91231000D01*
X59331651Y-91168908D01*
X59049257Y-91001851D01*
X58647548Y-90758656D01*
X58364638Y-90585290D01*
X57108757Y-89706838D01*
X56085136Y-88754410D01*
X55278237Y-87709804D01*
X54672517Y-86554817D01*
X54472207Y-86026080D01*
X54297943Y-85459435D01*
X54160955Y-84875390D01*
X54057382Y-84234958D01*
X53983364Y-83499151D01*
X53935039Y-82628982D01*
X53919232Y-82006367D01*
X54373768Y-82006367D01*
X54455069Y-83162957D01*
X54664751Y-84708680D01*
X55064812Y-86086524D01*
X55655469Y-87296998D01*
X56436940Y-88340612D01*
X56834151Y-88740470D01*
X57228866Y-89073990D01*
X57711724Y-89435295D01*
X58228553Y-89789274D01*
X58725180Y-90100818D01*
X59147434Y-90334817D01*
X59441142Y-90456161D01*
X59495471Y-90465317D01*
X59631864Y-90406366D01*
X59922652Y-90248024D01*
X60305929Y-90024057D01*
X60320971Y-90015016D01*
X61253964Y-89408108D01*
X61994298Y-88815756D01*
X62595574Y-88190301D01*
X63032800Y-87603869D01*
X63682980Y-86411457D01*
X64140166Y-85083134D01*
X64392123Y-83661430D01*
X64440040Y-82711806D01*
X64441000Y-82003113D01*
X61932750Y-81871986D01*
X59689375Y-81805106D01*
X57463182Y-81846875D01*
X56899134Y-81873613D01*
X54373768Y-82006367D01*
X53919232Y-82006367D01*
X53908546Y-81585463D01*
X53907640Y-81452000D01*
X54402056Y-81452000D01*
X59433749Y-81452000D01*
X64465442Y-81452000D01*
X64375000Y-80086750D01*
X64328934Y-79462606D01*
X64277477Y-78877822D01*
X64228148Y-78413187D01*
X64200722Y-78213500D01*
X64116886Y-77705500D01*
X63231193Y-77597067D01*
X62770395Y-77559406D01*
X62106622Y-77530241D01*
X61290756Y-77509560D01*
X60373680Y-77497351D01*
X59406276Y-77493600D01*
X58439426Y-77498296D01*
X57524013Y-77511425D01*
X56710919Y-77532977D01*
X56051027Y-77562937D01*
X55614500Y-77598923D01*
X54725500Y-77705500D01*
X54647491Y-78531000D01*
X54597388Y-79082895D01*
X54539976Y-79747406D01*
X54487398Y-80383895D01*
X54485769Y-80404250D01*
X54402056Y-81452000D01*
X53907640Y-81452000D01*
X53900024Y-80329605D01*
X53900000Y-80248227D01*
X53900000Y-77284834D01*
X54503250Y-77206293D01*
X57116553Y-76965320D01*
X59818647Y-76903387D01*
X62518175Y-77020470D01*
G37*
G36*
X56259535Y-82523832D02*
G01*
X56271277Y-82539805D01*
X56426160Y-82956720D01*
X56364953Y-83452571D01*
X56187391Y-83833250D01*
X56038584Y-84120020D01*
X56025271Y-84242122D01*
X56137073Y-84174795D01*
X56267249Y-84023750D01*
X56410043Y-83875718D01*
X56529375Y-83925103D01*
X56630500Y-84048023D01*
X56799287Y-84453583D01*
X56777517Y-84906419D01*
X56634539Y-85205976D01*
X56488967Y-85474878D01*
X56452634Y-85643000D01*
X56495386Y-85701916D01*
X56595002Y-85547750D01*
X56744647Y-85329774D01*
X56858156Y-85262000D01*
X57072472Y-85374731D01*
X57229815Y-85662132D01*
X57313021Y-86048009D01*
X57304923Y-86456168D01*
X57201656Y-86786641D01*
X57143398Y-87028162D01*
X57201656Y-87103287D01*
X57302824Y-87065621D01*
X57329000Y-86927990D01*
X57396063Y-86652043D01*
X57574398Y-86588548D01*
X57829720Y-86741799D01*
X57934945Y-86852093D01*
X58148999Y-87175171D01*
X58197479Y-87520283D01*
X58180232Y-87697920D01*
X58165462Y-88026223D01*
X58210304Y-88233007D01*
X58230088Y-88253970D01*
X58309161Y-88196342D01*
X58326552Y-88081094D01*
X58629108Y-88081094D01*
X58647263Y-88346979D01*
X58762433Y-88623144D01*
X58921667Y-88799791D01*
X58984468Y-88818000D01*
X59104409Y-88762461D01*
X59107000Y-88748193D01*
X59052915Y-88600267D01*
X58919883Y-88326686D01*
X58891138Y-88271943D01*
X58740781Y-88029152D01*
X58655739Y-88007709D01*
X58629108Y-88081094D01*
X58326552Y-88081094D01*
X58344833Y-87959949D01*
X58345000Y-87939217D01*
X58361724Y-87677757D01*
X58457892Y-87620127D01*
X58672024Y-87702447D01*
X59017645Y-87979940D01*
X59273712Y-88407503D01*
X59375732Y-88843443D01*
X59392628Y-89033027D01*
X59423781Y-88978533D01*
X59446355Y-88881500D01*
X59505235Y-88705069D01*
X59742000Y-88705069D01*
X59810410Y-88817047D01*
X59962956Y-88762217D01*
X60118531Y-88572349D01*
X60125125Y-88556166D01*
X60699341Y-88556166D01*
X60707439Y-88663825D01*
X60871074Y-88681175D01*
X61111338Y-88615634D01*
X61320228Y-88497773D01*
X61481986Y-88333294D01*
X61496592Y-88244258D01*
X61335330Y-88232609D01*
X61072088Y-88314627D01*
X60818539Y-88446622D01*
X60699341Y-88556166D01*
X60125125Y-88556166D01*
X60236681Y-88282392D01*
X60226128Y-88138887D01*
X60103185Y-88177876D01*
X59991774Y-88292319D01*
X59814462Y-88538744D01*
X59742000Y-88705069D01*
X59505235Y-88705069D01*
X59655545Y-88254671D01*
X59963706Y-87847486D01*
X60140888Y-87729249D01*
X60390707Y-87613653D01*
X60487549Y-87658364D01*
X60503984Y-87906882D01*
X60504000Y-87946905D01*
X60524038Y-88221120D01*
X60571596Y-88279786D01*
X60627836Y-88157087D01*
X60673922Y-87887208D01*
X60689587Y-87623788D01*
X60887801Y-87623788D01*
X60945455Y-87785425D01*
X60998412Y-87802000D01*
X61135821Y-87700501D01*
X61188912Y-87601112D01*
X61224842Y-87432669D01*
X61774000Y-87432669D01*
X61855604Y-87486125D01*
X62050086Y-87407858D01*
X62281948Y-87236532D01*
X62403245Y-87110433D01*
X62488329Y-86953688D01*
X62452808Y-86913000D01*
X62248162Y-86987145D01*
X62000840Y-87156888D01*
X61814088Y-87343189D01*
X61774000Y-87432669D01*
X61224842Y-87432669D01*
X61251742Y-87306559D01*
X61261960Y-87124862D01*
X61248028Y-86933651D01*
X61177437Y-86961104D01*
X61071460Y-87096023D01*
X60932954Y-87363527D01*
X60887801Y-87623788D01*
X60689587Y-87623788D01*
X60690499Y-87608445D01*
X60762445Y-87110545D01*
X60970778Y-86770777D01*
X61234175Y-86598790D01*
X61436180Y-86627144D01*
X61519909Y-86846907D01*
X61520000Y-86856995D01*
X61593452Y-87021098D01*
X61651468Y-87040000D01*
X61718068Y-86962257D01*
X61651468Y-86794349D01*
X61529177Y-86337700D01*
X61549795Y-86133648D01*
X61784549Y-86133648D01*
X61789576Y-86401144D01*
X61871298Y-86530253D01*
X61886187Y-86532000D01*
X62008314Y-86427381D01*
X62057025Y-86307722D01*
X62062936Y-86100497D01*
X62533550Y-86100497D01*
X62604355Y-86156186D01*
X62814187Y-86044704D01*
X62938749Y-85940816D01*
X63120225Y-85703695D01*
X63171000Y-85537678D01*
X63125546Y-85447925D01*
X62967664Y-85540802D01*
X62853500Y-85643000D01*
X62612891Y-85916485D01*
X62533550Y-86100497D01*
X62062936Y-86100497D01*
X62065877Y-85997392D01*
X62030545Y-85840757D01*
X61955606Y-85673518D01*
X61891255Y-85742620D01*
X61859707Y-85821422D01*
X61784549Y-86133648D01*
X61549795Y-86133648D01*
X61578919Y-85845418D01*
X61717701Y-85544258D01*
X61928960Y-85307266D01*
X62093163Y-85307987D01*
X62253491Y-85546701D01*
X62253997Y-85547750D01*
X62357005Y-85704185D01*
X62396365Y-85643000D01*
X62327440Y-85396577D01*
X62214460Y-85205976D01*
X62049063Y-84798387D01*
X62056915Y-84634736D01*
X62306714Y-84634736D01*
X62335963Y-84824718D01*
X62450901Y-85075319D01*
X62577824Y-85116913D01*
X62656120Y-84944925D01*
X62661055Y-84849250D01*
X62620151Y-84589159D01*
X63044000Y-84589159D01*
X63106702Y-84604404D01*
X63253942Y-84478777D01*
X63424421Y-84279367D01*
X63556840Y-84073262D01*
X63588464Y-83993276D01*
X63587138Y-83823356D01*
X63481352Y-83823824D01*
X63325753Y-83967075D01*
X63188202Y-84195462D01*
X63081448Y-84455200D01*
X63044000Y-84589159D01*
X62620151Y-84589159D01*
X62612556Y-84540866D01*
X62549930Y-84391191D01*
X62424300Y-84298036D01*
X62333406Y-84399119D01*
X62306714Y-84634736D01*
X62056915Y-84634736D01*
X62070919Y-84342888D01*
X62207029Y-84049709D01*
X62348024Y-83885483D01*
X62473969Y-83896818D01*
X62651529Y-84045119D01*
X62853595Y-84195943D01*
X62906540Y-84164144D01*
X62809367Y-83973435D01*
X62663000Y-83772654D01*
X62450112Y-83336734D01*
X62440278Y-83047849D01*
X62663000Y-83047849D01*
X62720888Y-83313369D01*
X62811279Y-83523760D01*
X62939991Y-83677356D01*
X63020390Y-83619700D01*
X63032119Y-83391998D01*
X62990480Y-83161050D01*
X62880902Y-82924378D01*
X62752083Y-82852806D01*
X62669186Y-82968858D01*
X62663000Y-83047849D01*
X62440278Y-83047849D01*
X62434455Y-82876772D01*
X62577722Y-82539805D01*
X62703120Y-82401975D01*
X62819499Y-82426975D01*
X63003061Y-82635353D01*
X63022222Y-82659659D01*
X63213356Y-82988249D01*
X63297786Y-83302798D01*
X63298000Y-83315095D01*
X63325905Y-83527161D01*
X63454626Y-83531713D01*
X63553884Y-83482991D01*
X63769522Y-83413376D01*
X63880112Y-83529504D01*
X63882961Y-83536785D01*
X63898010Y-83875925D01*
X63762547Y-84274836D01*
X63523109Y-84633012D01*
X63287421Y-84822970D01*
X62999059Y-84999189D01*
X62936740Y-85104038D01*
X63102489Y-85123449D01*
X63247343Y-85101461D01*
X63470223Y-85079386D01*
X63536711Y-85178038D01*
X63501479Y-85435906D01*
X63339512Y-85818875D01*
X63050946Y-86155285D01*
X62712916Y-86368277D01*
X62528918Y-86405000D01*
X62315674Y-86455801D01*
X62308576Y-86563872D01*
X62491961Y-86662715D01*
X62594225Y-86682314D01*
X62796443Y-86723880D01*
X62837917Y-86825490D01*
X62739771Y-87064341D01*
X62713539Y-87118366D01*
X62376646Y-87536664D01*
X61876545Y-87771137D01*
X61545774Y-87815510D01*
X61202500Y-87829020D01*
X61551750Y-87967026D01*
X61811003Y-88091776D01*
X61874854Y-88223987D01*
X61744662Y-88424292D01*
X61566181Y-88610181D01*
X61231715Y-88855446D01*
X60823981Y-88942157D01*
X60701455Y-88945000D01*
X60356145Y-88984552D01*
X60046066Y-89082923D01*
X59827923Y-89209682D01*
X59758424Y-89334399D01*
X59838041Y-89408325D01*
X59940956Y-89535037D01*
X59925583Y-89591190D01*
X59766866Y-89635782D01*
X59615000Y-89580000D01*
X59373011Y-89521440D01*
X59297712Y-89579656D01*
X59115882Y-89701971D01*
X58932678Y-89605243D01*
X58923203Y-89590847D01*
X58949747Y-89447857D01*
X59010958Y-89408325D01*
X59085332Y-89305087D01*
X58971912Y-89174086D01*
X58729365Y-89048983D01*
X58416356Y-88963442D01*
X58203470Y-88945000D01*
X57673778Y-88833186D01*
X57338744Y-88616210D01*
X57053592Y-88353386D01*
X57026516Y-88296489D01*
X57456000Y-88296489D01*
X57562769Y-88494426D01*
X57808094Y-88650252D01*
X58004950Y-88691000D01*
X58169102Y-88657271D01*
X58110748Y-88524406D01*
X58102390Y-88514224D01*
X57914469Y-88367040D01*
X57681168Y-88267309D01*
X57499878Y-88247837D01*
X57456000Y-88296489D01*
X57026516Y-88296489D01*
X56973244Y-88184542D01*
X57094399Y-88058027D01*
X57297250Y-87967026D01*
X57646500Y-87829020D01*
X57243494Y-87815510D01*
X56912692Y-87742193D01*
X56589309Y-87570863D01*
X56307685Y-87341959D01*
X56102163Y-87095922D01*
X56048486Y-86970179D01*
X56371415Y-86970179D01*
X56496710Y-87134022D01*
X56605831Y-87234513D01*
X56894591Y-87454879D01*
X57081289Y-87538769D01*
X57131163Y-87486591D01*
X57009448Y-87298753D01*
X56948000Y-87230500D01*
X56842377Y-87142240D01*
X57607792Y-87142240D01*
X57620516Y-87387752D01*
X57702903Y-87607376D01*
X57813350Y-87739087D01*
X57910254Y-87720862D01*
X57940280Y-87637932D01*
X57911734Y-87376455D01*
X57816071Y-87141905D01*
X57652082Y-86849500D01*
X57607792Y-87142240D01*
X56842377Y-87142240D01*
X56689067Y-87014133D01*
X56462880Y-86917393D01*
X56449612Y-86917013D01*
X56371415Y-86970179D01*
X56048486Y-86970179D01*
X56007083Y-86873190D01*
X56056787Y-86714204D01*
X56261389Y-86659000D01*
X56514005Y-86616403D01*
X56544258Y-86518082D01*
X56363305Y-86408239D01*
X56186073Y-86360564D01*
X55787917Y-86155878D01*
X55549737Y-85868439D01*
X55409909Y-85576284D01*
X55678000Y-85576284D01*
X55759457Y-85746105D01*
X55945749Y-85938932D01*
X56149751Y-86080110D01*
X56283877Y-86095455D01*
X56282455Y-86080004D01*
X56821000Y-86080004D01*
X56852406Y-86376769D01*
X56929792Y-86527334D01*
X56948000Y-86532000D01*
X57037852Y-86421814D01*
X57075000Y-86158495D01*
X57035851Y-85865202D01*
X56948000Y-85706500D01*
X56861581Y-85760154D01*
X56821937Y-86018885D01*
X56821000Y-86080004D01*
X56282455Y-86080004D01*
X56271384Y-85959755D01*
X56199817Y-85795818D01*
X56024319Y-85573116D01*
X55833415Y-85461507D01*
X55700209Y-85491745D01*
X55678000Y-85576284D01*
X55409909Y-85576284D01*
X55357391Y-85466554D01*
X55357311Y-85209733D01*
X55547616Y-85108768D01*
X55681130Y-85115052D01*
X55850716Y-85127093D01*
X55868474Y-85071797D01*
X55719147Y-84911958D01*
X55584749Y-84788867D01*
X56207942Y-84788867D01*
X56215431Y-85043864D01*
X56310580Y-85135000D01*
X56431714Y-85027411D01*
X56513036Y-84824718D01*
X56541646Y-84543729D01*
X56494372Y-84351025D01*
X56402406Y-84302220D01*
X56300018Y-84444929D01*
X56207942Y-84788867D01*
X55584749Y-84788867D01*
X55524899Y-84734052D01*
X55177504Y-84339294D01*
X55030784Y-83919791D01*
X55030723Y-83906199D01*
X55324006Y-83906199D01*
X55365882Y-84171551D01*
X55496756Y-84383227D01*
X55696672Y-84564122D01*
X55768551Y-84538403D01*
X55706664Y-84322074D01*
X55598502Y-84099052D01*
X55447035Y-83846190D01*
X55362040Y-83807437D01*
X55324006Y-83906199D01*
X55030723Y-83906199D01*
X55028942Y-83511281D01*
X55095488Y-83412686D01*
X55297000Y-83484000D01*
X55486160Y-83551564D01*
X55498961Y-83526137D01*
X55809039Y-83526137D01*
X55822971Y-83717348D01*
X55893562Y-83689895D01*
X55999539Y-83554976D01*
X56148203Y-83266948D01*
X56186000Y-83078726D01*
X56133985Y-82885823D01*
X56072587Y-82849000D01*
X55928711Y-82962140D01*
X55831766Y-83247018D01*
X55809039Y-83526137D01*
X55498961Y-83526137D01*
X55547386Y-83429945D01*
X55550999Y-83315095D01*
X55628441Y-83005367D01*
X55815899Y-82673725D01*
X55826777Y-82659659D01*
X56018696Y-82436268D01*
X56137548Y-82397842D01*
X56259535Y-82523832D01*
G37*
D14*
X139670000Y-41895000D02*
X141000000Y-41895000D01*
X139670000Y-43225000D02*
X139670000Y-41895000D01*
X139670000Y-44495000D02*
X139670000Y-49635000D01*
X139670000Y-44495000D02*
X142330000Y-44495000D01*
X139670000Y-49635000D02*
X142330000Y-49635000D01*
X142330000Y-44495000D02*
X142330000Y-49635000D01*
D13*
X60200000Y-58857500D02*
X60200000Y-66477500D01*
X60200000Y-66477500D02*
X64010000Y-66477500D01*
X64010000Y-56317500D02*
X64010000Y-58857500D01*
X64010000Y-58857500D02*
X60200000Y-58857500D01*
X64010000Y-66477500D02*
X64010000Y-71557500D01*
X64010000Y-71557500D02*
X67185000Y-71557500D01*
X66550000Y-48697500D02*
X66550000Y-56317500D01*
X66550000Y-56317500D02*
X64010000Y-56317500D01*
X67185000Y-71557500D02*
X67185000Y-74097500D01*
X67185000Y-74097500D02*
X76075000Y-74097500D01*
X68455000Y-49967500D02*
X74805000Y-49967500D01*
X68455000Y-50602500D02*
X68455000Y-52507500D01*
X68455000Y-53777500D02*
X67820000Y-51872500D01*
X68455000Y-54412500D02*
X68455000Y-53777500D01*
X68455000Y-55047500D02*
X74805000Y-55047500D01*
X76075000Y-71557500D02*
X79250000Y-71557500D01*
X76075000Y-74097500D02*
X76075000Y-71557500D01*
X76710000Y-48697500D02*
X66550000Y-48697500D01*
X76710000Y-55682500D02*
X76710000Y-48697500D01*
X79250000Y-55682500D02*
X76710000Y-55682500D01*
X79250000Y-58222500D02*
X79250000Y-55682500D01*
X79250000Y-65842500D02*
X81155000Y-65842500D01*
X79250000Y-71557500D02*
X79250000Y-65842500D01*
X81155000Y-58222500D02*
X79250000Y-58222500D01*
X81155000Y-65842500D02*
X81155000Y-58222500D01*
D16*
X72138000Y-62667500D02*
G75*
G02*
X71122000Y-62667500I-508000J0D01*
G01*
X71122000Y-62667500D02*
G75*
G02*
X72138000Y-62667500I508000J0D01*
G01*
D14*
X57750000Y-98750000D02*
X57750000Y-100250000D01*
X59000000Y-102750000D02*
X63500000Y-102750000D01*
X63500000Y-96250000D02*
X59000000Y-96250000D01*
X64750000Y-100250000D02*
X64750000Y-98750000D01*
X68250000Y-91500000D02*
X68250000Y-93000000D01*
X69500000Y-95500000D02*
X74000000Y-95500000D01*
X74000000Y-89000000D02*
X69500000Y-89000000D01*
X75250000Y-93000000D02*
X75250000Y-91500000D01*
X68925000Y-117450000D02*
X68925000Y-118450000D01*
X68925000Y-118450000D02*
X69425000Y-117950000D01*
X69425000Y-117950000D02*
X68925000Y-117450000D01*
X69480000Y-115080000D02*
X69480000Y-116775000D01*
X69480000Y-115080000D02*
X74065000Y-115080000D01*
X69480000Y-119125000D02*
X69480000Y-120995000D01*
X69480000Y-121906000D02*
X69480000Y-124320000D01*
X69480000Y-124320000D02*
X72865000Y-124320000D01*
X76136000Y-124320000D02*
X98065000Y-124320000D01*
X77100000Y-118200000D02*
X77100000Y-121200000D01*
X77100000Y-119700000D02*
X77850000Y-120450000D01*
X77100000Y-119700000D02*
X97100000Y-119700000D01*
X77336000Y-115080000D02*
X96865000Y-115080000D01*
X77850000Y-118950000D02*
X77100000Y-119700000D01*
X96350000Y-118950000D02*
X97100000Y-119700000D01*
X97100000Y-118200000D02*
X97100000Y-121200000D01*
X97100000Y-119700000D02*
X96350000Y-120450000D01*
X100136000Y-115080000D02*
X104720000Y-115080000D01*
X101336000Y-124320000D02*
X104720000Y-124320000D01*
X104720000Y-115080000D02*
X104720000Y-117494000D01*
X104720000Y-118406000D02*
X104720000Y-124320000D01*
X131750000Y-73000000D02*
X131750000Y-74500000D01*
X133000000Y-77000000D02*
X137500000Y-77000000D01*
X137500000Y-70500000D02*
X133000000Y-70500000D01*
X138750000Y-74500000D02*
X138750000Y-73000000D01*
X153250000Y-73000000D02*
X153250000Y-74500000D01*
X154500000Y-77000000D02*
X159000000Y-77000000D01*
X159000000Y-70500000D02*
X154500000Y-70500000D01*
X160250000Y-74500000D02*
X160250000Y-73000000D01*
X138420000Y-113455000D02*
X138420000Y-116545000D01*
X138420000Y-113455170D02*
G75*
G02*
X143970000Y-115000462I2560000J-1544830D01*
G01*
X143970000Y-114999538D02*
G75*
G02*
X138420000Y-116544830I-2990000J-462D01*
G01*
X143480000Y-115000000D02*
G75*
G02*
X138480000Y-115000000I-2500000J0D01*
G01*
X138480000Y-115000000D02*
G75*
G02*
X143480000Y-115000000I2500000J0D01*
G01*
X129645000Y-113455000D02*
X129645000Y-116545000D01*
X129645000Y-113455170D02*
G75*
G02*
X135195000Y-115000462I2560000J-1544830D01*
G01*
X135195000Y-114999538D02*
G75*
G02*
X129645000Y-116544830I-2990000J-462D01*
G01*
X134705000Y-115000000D02*
G75*
G02*
X129705000Y-115000000I-2500000J0D01*
G01*
X129705000Y-115000000D02*
G75*
G02*
X134705000Y-115000000I2500000J0D01*
G01*
X142500000Y-66000000D02*
X142500000Y-67500000D01*
X143750000Y-70000000D02*
X148250000Y-70000000D01*
X148250000Y-63500000D02*
X143750000Y-63500000D01*
X149500000Y-67500000D02*
X149500000Y-66000000D01*
X79000000Y-98750000D02*
X79000000Y-100250000D01*
X80250000Y-102750000D02*
X84750000Y-102750000D01*
X84750000Y-96250000D02*
X80250000Y-96250000D01*
X86000000Y-100250000D02*
X86000000Y-98750000D01*
X144650000Y-41450000D02*
X146500000Y-41450000D01*
X144650000Y-52450000D02*
X144650000Y-41450000D01*
X146500000Y-41450000D02*
X157000000Y-41450000D01*
X157350000Y-41450000D02*
X157350000Y-52450000D01*
X157350000Y-52450000D02*
X144650000Y-52450000D01*
X68250000Y-105750000D02*
X68250000Y-107250000D01*
X69500000Y-109750000D02*
X74000000Y-109750000D01*
X74000000Y-103250000D02*
X69500000Y-103250000D01*
X75250000Y-107250000D02*
X75250000Y-105750000D01*
X135170000Y-41840000D02*
X136500000Y-41840000D01*
X135170000Y-43170000D02*
X135170000Y-41840000D01*
X135170000Y-44440000D02*
X135170000Y-49580000D01*
X135170000Y-44440000D02*
X137830000Y-44440000D01*
X135170000Y-49580000D02*
X137830000Y-49580000D01*
X137830000Y-44440000D02*
X137830000Y-49580000D01*
X112130000Y-113455000D02*
X112130000Y-116545000D01*
X112130000Y-113455170D02*
G75*
G02*
X117680000Y-115000462I2560000J-1544830D01*
G01*
X117680000Y-114999538D02*
G75*
G02*
X112130000Y-116544830I-2990000J-462D01*
G01*
X117190000Y-115000000D02*
G75*
G02*
X112190000Y-115000000I-2500000J0D01*
G01*
X112190000Y-115000000D02*
G75*
G02*
X117190000Y-115000000I2500000J0D01*
G01*
X142500000Y-80250000D02*
X142500000Y-81750000D01*
X143750000Y-84250000D02*
X148250000Y-84250000D01*
X148250000Y-77750000D02*
X143750000Y-77750000D01*
X149500000Y-81750000D02*
X149500000Y-80250000D01*
X130615000Y-41840000D02*
X131945000Y-41840000D01*
X130615000Y-43170000D02*
X130615000Y-41840000D01*
X130615000Y-44440000D02*
X130615000Y-49580000D01*
X130615000Y-44440000D02*
X133275000Y-44440000D01*
X130615000Y-49580000D02*
X133275000Y-49580000D01*
X133275000Y-44440000D02*
X133275000Y-49580000D01*
X120895000Y-113455000D02*
X120895000Y-116545000D01*
X120895000Y-113455170D02*
G75*
G02*
X126445000Y-115000462I2560000J-1544830D01*
G01*
X126445000Y-114999538D02*
G75*
G02*
X120895000Y-116544830I-2990000J-462D01*
G01*
X125955000Y-115000000D02*
G75*
G02*
X120955000Y-115000000I-2500000J0D01*
G01*
X120955000Y-115000000D02*
G75*
G02*
X125955000Y-115000000I2500000J0D01*
G01*
D16*
X91210000Y-42000000D02*
X91210000Y-92800000D01*
X93750000Y-95340000D02*
X122960000Y-95340000D01*
X122960000Y-39460000D02*
X93750000Y-39460000D01*
X125500000Y-92800000D02*
X125500000Y-42000000D01*
D13*
X93115000Y-47080000D02*
X123595000Y-47080000D01*
X123595000Y-88990000D01*
X93115000Y-88990000D01*
X93115000Y-47080000D01*
D16*
X91210000Y-42000000D02*
G75*
G02*
X93750000Y-39460000I2540001J-1D01*
G01*
X93750000Y-95340000D02*
G75*
G02*
X91210000Y-92800000I1J2540001D01*
G01*
X122960000Y-39460000D02*
G75*
G02*
X125500000Y-42000000I0J-2540000D01*
G01*
X125500000Y-92800000D02*
G75*
G02*
X122960000Y-95340000I-2540000J0D01*
G01*
D17*
X97077400Y-94705000D02*
G75*
G02*
X96772600Y-94705000I-152400J0D01*
G01*
X96772600Y-94705000D02*
G75*
G02*
X97077400Y-94705000I152400J0D01*
G01*
%LPC*%
D18*
X161250000Y-52330000D03*
D19*
X161250000Y-49790000D03*
X161250000Y-47250000D03*
D18*
X141000000Y-43225000D03*
D19*
X141000000Y-45765000D03*
X141000000Y-48305000D03*
D20*
X61470000Y-65207500D03*
X61470000Y-62667500D03*
X61470000Y-60127500D03*
X69090000Y-72827500D03*
X71630000Y-72827500D03*
X74170000Y-72827500D03*
D21*
X64010000Y-56000000D03*
X64010000Y-69335000D03*
X79250000Y-69335000D03*
X79250000Y-56000000D03*
D20*
X68455000Y-55047500D03*
X74805000Y-55047500D03*
X68455000Y-49967500D03*
X74805000Y-49967500D03*
D22*
X58000000Y-97250000D03*
X64500000Y-97250000D03*
X58000000Y-101750000D03*
X64500000Y-101750000D03*
X68500000Y-90000000D03*
X75000000Y-90000000D03*
X68500000Y-94500000D03*
X75000000Y-94500000D03*
D23*
X74500000Y-123900000D03*
X75700000Y-115500000D03*
X98500000Y-115500000D03*
X99700000Y-123900000D03*
D24*
X70600000Y-117950000D03*
D25*
X70600000Y-121450000D03*
X103600000Y-117950000D03*
D22*
X132000000Y-71500000D03*
X138500000Y-71500000D03*
X132000000Y-76000000D03*
X138500000Y-76000000D03*
X153500000Y-71500000D03*
X160000000Y-71500000D03*
X153500000Y-76000000D03*
X160000000Y-76000000D03*
D26*
X139710000Y-115000000D03*
D27*
X142250000Y-115000000D03*
D28*
X161290000Y-41910000D03*
X161290000Y-123190000D03*
X54610000Y-41910000D03*
X54610000Y-123190000D03*
D26*
X130935000Y-115000000D03*
D27*
X133475000Y-115000000D03*
D22*
X142750000Y-64500000D03*
X149250000Y-64500000D03*
X142750000Y-69000000D03*
X149250000Y-69000000D03*
X79250000Y-97250000D03*
X85750000Y-97250000D03*
X79250000Y-101750000D03*
X85750000Y-101750000D03*
D21*
X156000000Y-49750000D03*
X151000000Y-44750000D03*
X146000000Y-49750000D03*
D22*
X68500000Y-104250000D03*
X75000000Y-104250000D03*
X68500000Y-108750000D03*
X75000000Y-108750000D03*
D18*
X136500000Y-43170000D03*
D19*
X136500000Y-45710000D03*
X136500000Y-48250000D03*
D26*
X113420000Y-115000000D03*
D27*
X115960000Y-115000000D03*
D22*
X142750000Y-78750000D03*
X149250000Y-78750000D03*
X142750000Y-83250000D03*
X149250000Y-83250000D03*
D18*
X131945000Y-43170000D03*
D19*
X131945000Y-45710000D03*
X131945000Y-48250000D03*
D26*
X122185000Y-115000000D03*
D27*
X124725000Y-115000000D03*
D29*
X93750000Y-42000000D03*
X93750000Y-92800000D03*
X122960000Y-42000000D03*
X122960000Y-92800000D03*
D30*
X96925000Y-92800000D03*
D31*
X99465000Y-92800000D03*
X102005000Y-92800000D03*
X104545000Y-92800000D03*
X107085000Y-92800000D03*
X109625000Y-92800000D03*
X112165000Y-92800000D03*
X114705000Y-92800000D03*
X117245000Y-92800000D03*
X119785000Y-92800000D03*
D32*
X132250000Y-99305000D03*
D33*
X132250000Y-106925000D03*
D34*
X70525000Y-41420000D03*
D19*
X67985000Y-41420000D03*
D32*
X158500000Y-99365000D03*
D33*
X158500000Y-106985000D03*
D32*
X151000000Y-99365000D03*
D33*
X151000000Y-106985000D03*
D35*
X104140000Y-58420000D03*
D36*
X106680000Y-58420000D03*
X109220000Y-58420000D03*
X111760000Y-58420000D03*
X114300000Y-58420000D03*
X116840000Y-58420000D03*
X119380000Y-58420000D03*
X121920000Y-58420000D03*
X124460000Y-58420000D03*
X127000000Y-58420000D03*
X104140000Y-104140000D03*
X106680000Y-104140000D03*
X109220000Y-104140000D03*
X111760000Y-104140000D03*
X114300000Y-104140000D03*
X116840000Y-104140000D03*
X119380000Y-104140000D03*
X121920000Y-104140000D03*
X124460000Y-104140000D03*
X127000000Y-104140000D03*
X104140000Y-60960000D03*
X106680000Y-60960000D03*
X109220000Y-60960000D03*
X111760000Y-60960000D03*
X114300000Y-60960000D03*
X116840000Y-60960000D03*
X119380000Y-60960000D03*
X121920000Y-60960000D03*
X124460000Y-60960000D03*
X127000000Y-60960000D03*
X104140000Y-101600000D03*
X106680000Y-101600000D03*
X109220000Y-101600000D03*
X111760000Y-101600000D03*
X114300000Y-101600000D03*
X116840000Y-101600000D03*
X119380000Y-101600000D03*
X121920000Y-101600000D03*
X124460000Y-101600000D03*
X127000000Y-101600000D03*
D32*
X149810000Y-60750000D03*
D33*
X142190000Y-60750000D03*
D32*
X136000000Y-99305000D03*
D33*
X136000000Y-106925000D03*
D32*
X107940000Y-122750000D03*
D33*
X115560000Y-122750000D03*
D34*
X62775000Y-41500000D03*
D19*
X60235000Y-41500000D03*
D34*
X86141750Y-41500000D03*
D19*
X83601750Y-41500000D03*
D32*
X143500000Y-99365000D03*
D33*
X143500000Y-106985000D03*
D32*
X68000000Y-86250000D03*
D33*
X75620000Y-86250000D03*
D32*
X149870000Y-87000000D03*
D33*
X142250000Y-87000000D03*
D34*
X78260000Y-41500000D03*
D19*
X75720000Y-41500000D03*
D32*
X132120000Y-122750000D03*
D33*
X139740000Y-122750000D03*
D32*
X128250000Y-69880000D03*
D33*
X128250000Y-77500000D03*
D32*
X54250000Y-103250000D03*
D33*
X54250000Y-95630000D03*
D32*
X120000000Y-122750000D03*
D33*
X127620000Y-122750000D03*
D32*
X89500000Y-95750000D03*
D33*
X89500000Y-103370000D03*
D32*
X139750000Y-99365000D03*
D33*
X139750000Y-106985000D03*
D32*
X68000000Y-112250000D03*
D33*
X75620000Y-112250000D03*
D32*
X163195000Y-77810000D03*
D33*
X163195000Y-70190000D03*
D32*
X154750000Y-99305000D03*
D33*
X154750000Y-106925000D03*
D32*
X147250000Y-99365000D03*
D33*
X147250000Y-106985000D03*
D32*
X144250000Y-122750000D03*
D33*
X151870000Y-122750000D03*
%LPD*%
M02*
